<?xml version="1.0" standalone="no"?>
<!DOCTYPE svg PUBLIC "-//W3C//DTD SVG 1.1//EN" "http://www.w3.org/Graphics/SVG/1.1/DTD/svg11.dtd" >
<svg xmlns="http://www.w3.org/2000/svg" xmlns:xlink="http://www.w3.org/1999/xlink" version="1.1">
<metadata>
Created by FontForge 20170731 at Mon Apr 23 12:22:49 2018
 By Aleksey,,,
Copyright (c) 2017 by Mariya Pigoulevskaya. All rights reserved.
</metadata>
<defs>
<font id="Manofa-Regular" horiz-adv-x="0" >
  <font-face 
    font-family="Manofa"
    font-weight="400"
    font-stretch="normal"
    units-per-em="2048"
    panose-1="0 0 5 0 0 0 0 0 0 0"
    ascent="1638"
    descent="-410"
    x-height="1083"
    cap-height="1505"
    bbox="-1655 -653 3129 2406"
    underline-thickness="0"
    underline-position="0"
    unicode-range="U+0020-25CA"
  />
<missing-glyph horiz-adv-x="1228" 
 />
    <glyph glyph-name=".notdef" horiz-adv-x="1228" 
 />
    <glyph glyph-name="glyph1" 
 />
    <glyph glyph-name="glyph2" horiz-adv-x="681" 
 />
    <glyph glyph-name="space" unicode=" " horiz-adv-x="552" 
 />
    <glyph glyph-name="exclam" unicode="!" horiz-adv-x="819" 
d="M256 1495l307 10l-37 -989l-231 -10zM387 -29l-221 217l268 172l219 -217z" />
    <glyph glyph-name="quotedbl" unicode="&#x22;" horiz-adv-x="1034" 
d="M217 817l-51 678l283 10l-43 -581zM637 817l-51 678l282 10l-43 -581z" />
    <glyph glyph-name="numbersign" unicode="#" horiz-adv-x="1503" 
d="M1303 887h-185l-51 -252h233l-71 -209h-205l-88 -426l-213 -10l90 436h-264l-88 -426l-213 -10l90 436h-209l72 209h180l51 252h-229l71 209h201l82 399l213 10l-84 -409h264l82 399l213 10l-84 -409h213zM856 635l51 252h-264l-51 -252h264z" />
    <glyph glyph-name="dollar" unicode="$" horiz-adv-x="1380" 
d="M764 905q252 -53 362.5 -142t110.5 -271q0 -115 -88 -267l-322 -176v-289l-299 -10v232q-272 39 -426 229l254 221q109 -141 260 -217h361q31 78 31 156q0 111 -78 159t-291 95q-248 55 -373 143t-125 256q0 123 95 248l292 162v301l299 10v-229q287 -43 441 -232
l-254 -221q-109 141 -260 217h-351q-31 -61 -30 -137q0 -88 83 -139.5t308 -98.5z" />
    <glyph glyph-name="percent" unicode="%" horiz-adv-x="2295" 
d="M541 698q-172 0 -286 108.5t-114 272.5q0 131 88 287l359 158q172 0 285.5 -109.5t113.5 -273.5q0 -129 -88 -285zM625 -10l813 1505l233 10l-813 -1505zM545 893h182q20 100 21 145q0 102 -39 170t-127 119h-181q-20 -96 -20 -145q0 -102 38 -171t126 -118zM1708 -29
q-172 0 -285.5 108.5t-113.5 274.5q0 129 88 285l358 158q172 0 285.5 -108.5t113.5 -272.5q0 -131 -88 -287zM1714 168h180q20 96 21 145q0 102 -38 171t-126 118h-182q-20 -100 -21 -145q0 -102 39 -170t127 -119z" />
    <glyph glyph-name="ampersand" unicode="&#x26;" horiz-adv-x="1796" 
d="M1602 719h-271l-90 -240l348 -307l-231 -201l-248 219l-405 -219h-152q-168 0 -275.5 93.5t-107.5 236.5q0 131 137 305l205 111l-156 137q-39 33 -61.5 58.5t-43 71.5t-20.5 97q0 80 56 191l454 252q147 0 291 -62.5t236 -177.5l-256 -221q-109 141 -260 217h-299
q-14 -43 -15 -59q0 -25 17.5 -46.5t70.5 -66.5l559 -492l142 377h469zM936 215l37 96l-342 301h-103q-45 -104 -45 -186q0 -139 131 -211h322z" />
    <glyph glyph-name="quotesingle" unicode="'" horiz-adv-x="614" 
d="M217 817l-51 678l283 10l-43 -581z" />
    <glyph glyph-name="parenleft" unicode="(" horiz-adv-x="694" 
d="M639 1608q-289 -432 -289 -965q0 -539 289 -954l-195 -11q-319 498 -319 965q0 446 319 954z" />
    <glyph glyph-name="parenright" unicode=")" horiz-adv-x="694" 
d="M57 -322q289 432 289 965q0 541 -289 954l193 11q319 -498 319 -965q0 -446 -319 -954z" />
    <glyph glyph-name="asterisk" unicode="*" horiz-adv-x="1130" 
d="M975 1145l-277 -103l199 -235l-137 -102l-195 231l-194 -229l-138 102l197 235l-274 101l49 164l274 -101v287l172 10v-297l275 101z" />
    <glyph glyph-name="plus" unicode="+" horiz-adv-x="1214" 
d="M1061 743l-70 -208h-276v-322l-217 -10v332h-346l71 208h275v322l217 10v-332h346z" />
    <glyph glyph-name="comma" unicode="," horiz-adv-x="819" 
d="M434 360l219 -217l-258 -489l-104 37l65 311l-190 186z" />
    <glyph glyph-name="hyphen" unicode="-" horiz-adv-x="1093" 
d="M940 743l-70 -208h-718l71 208h717z" />
    <glyph glyph-name="period" unicode="." horiz-adv-x="819" 
d="M387 -29l-221 217l268 172l219 -217z" />
    <glyph glyph-name="slash" unicode="/" horiz-adv-x="673" 
d="M33 -322l393 1919l215 11l-393 -1919z" />
    <glyph glyph-name="zero" unicode="0" horiz-adv-x="1607" 
d="M743 1524q338 0 538 -202t200 -544q0 -129 -38 -280.5t-97 -268.5l-482 -258q-336 0 -536.5 203t-200.5 543q0 129 38 280.5t99 268.5zM487 1280q-45 -238 -45 -371q0 -506 367 -694h313q45 254 45 371q0 506 -366 694h-314z" />
    <glyph glyph-name="one" unicode="1" horiz-adv-x="831" 
d="M139 1495l467 29v-1524l-307 -10v1286l-242 -16z" />
    <glyph glyph-name="two" unicode="2" horiz-adv-x="1212" 
d="M455 287h647l-96 -287h-957v10q453 553 571.5 731.5t118.5 302.5q0 98 -64.5 155.5t-170.5 57.5q-88 0 -153.5 -21.5t-192.5 -90.5l-47 72l317 307h129q92 0 175 -20.5t158 -62.5t119 -121t44 -185q0 -160 -108.5 -313.5t-489.5 -534.5z" />
    <glyph glyph-name="three" unicode="3" horiz-adv-x="1288" 
d="M846 879q147 -16 237.5 -106.5t90.5 -229.5q0 -147 -140 -322l-461 -250q-143 0 -282 62.5t-234 177.5l256 223q117 -150 289 -219h211q45 109 45 193q0 96 -30.5 156.5t-100.5 107.5h-408l72 209h334q53 98 53 172q0 88 -60.5 146t-168.5 58q-100 0 -172 -23.5
t-203 -88.5l-47 72l317 307h164q215 0 350.5 -86t135.5 -269q0 -86 -47 -186z" />
    <glyph glyph-name="four" unicode="4" horiz-adv-x="1339" 
d="M1282 567l-72 -209h-186v-358l-307 -10v368h-611l-51 97l690 1030l279 26v-944h258zM367 567h350v525z" />
    <glyph glyph-name="five" unicode="5" horiz-adv-x="1275" 
d="M676 920q240 0 361.5 -99.5t121.5 -273.5q0 -154 -137 -326l-461 -250q-141 0 -278.5 61.5t-231.5 178.5l256 223q117 -150 289 -219h205q45 109 45 193q0 113 -30 176t-101 112h-439l-53 45l113 754h809l-98 -287h-558l-53 -356l158 68h82z" />
    <glyph glyph-name="six" unicode="6" horiz-adv-x="1374" 
d="M866 936q166 0 274.5 -111.5t108.5 -277.5q0 -150 -137 -326l-467 -250q-88 0 -170 27t-159.5 85t-124 172t-46.5 267q0 150 34 364t85 388l461 250q133 0 288.5 -63.5t246.5 -176.5l-256 -223q-117 150 -289 219h-242q-12 -80 -20 -526l292 182h121zM891 215
q43 113 43 207q0 184 -131 270h-297q-45 -111 -45 -207q0 -186 131 -270h299z" />
    <glyph glyph-name="seven" unicode="7" horiz-adv-x="1126" 
d="M160 1495h915v-10l-635 -1485l-217 -10l520 1218h-682z" />
    <glyph glyph-name="eight" unicode="8" horiz-adv-x="1396" 
d="M674 -29q-274 0 -412.5 98.5t-138.5 268.5q0 164 137 313l131 70q-98 37 -157.5 119t-59.5 176q0 137 131 282l416 226q258 0 381 -89t123 -241q0 -127 -131 -258l-86 -47q119 -33 191.5 -131.5t72.5 -220.5q0 -143 -137 -316zM600 895h270q33 84 33 178q0 141 -102 207
h-283q-25 -80 -24 -158q0 -90 25.5 -141t80.5 -86zM569 215h344q45 111 45 197q0 188 -131 274h-323q-66 -100 -66 -211q0 -176 131 -260z" />
    <glyph glyph-name="nine" unicode="9" horiz-adv-x="1370" 
d="M725 1524q88 0 169 -27t158.5 -85t124 -172t46.5 -267q0 -150 -33 -364t-84 -388l-461 -250q-135 0 -289.5 63.5t-244.5 176.5l254 223q119 -150 290 -219h242q12 84 21 528l-293 -184h-121q-166 0 -274.5 111.5t-108.5 277.5q0 154 137 326zM864 803q45 111 45 207
q0 184 -131 270h-299q-45 -111 -45 -207q0 -182 131 -270h299z" />
    <glyph glyph-name="colon" unicode=":" horiz-adv-x="819" 
d="M387 645l-221 217l268 172l219 -215zM387 -29l-221 217l268 172l219 -217z" />
    <glyph glyph-name="semicolon" unicode=";" horiz-adv-x="821" 
d="M653 819l-266 -174l-219 217l266 172zM166 188l268 172l219 -217l-258 -489l-104 37l65 311z" />
    <glyph glyph-name="less" unicode="&#x3c;" horiz-adv-x="1249" 
d="M1083 1106v-221l-565 -244l565 -244v-221l-917 395l57 164z" />
    <glyph glyph-name="equal" unicode="=" horiz-adv-x="1214" 
d="M1061 926l-70 -209h-839l71 209h838zM1061 561l-70 -209h-839l71 209h838z" />
    <glyph glyph-name="greater" unicode="&#x3e;" horiz-adv-x="1249" 
d="M166 1106l917 -395l-57 -164l-860 -371v221l565 244l-565 244v221z" />
    <glyph glyph-name="question" unicode="?" horiz-adv-x="1118" 
d="M516 1524q221 0 354.5 -104.5t133.5 -278.5q0 -147 -109 -246.5t-291 -120.5l-10 -258l-232 -10l-14 373q340 0 340 190q0 84 -61.5 136t-161.5 52q-78 0 -144.5 -22.5t-189.5 -89.5l-47 72l317 307h115zM236 188l266 172l219 -217l-266 -172z" />
    <glyph glyph-name="at" unicode="@" horiz-adv-x="2676" 
d="M1595 1083l297 11v-582q0 -190 34 -264t118 -74q123 0 203 125t80 322q0 700 -1000 700q-459 0 -718 -215t-259 -594q0 -373 261 -576.5t743 -203.5q373 0 714 69v-188q-373 -84 -694 -84q-580 0 -908.5 256t-328.5 707q0 477 319.5 754.5t870.5 277.5
q590 0 901.5 -231.5t311.5 -671.5q0 -274 -145.5 -462t-358.5 -188q-252 0 -320 193l-452 -193q-252 0 -404.5 149.5t-152.5 397.5q0 168 98 371l498 223q51 0 132 -60.5t160 -152.5v184zM1272 166h289q35 158 34 262q0 352 -268 490h-289q-35 -158 -34 -263
q0 -352 268 -489z" />
    <glyph glyph-name="A" unicode="A" horiz-adv-x="1474" 
d="M1104 -29l-152 416h-536l-142 -387l-219 -29l557 1524l246 29l549 -1497zM492 596h382l-190 522z" />
    <glyph glyph-name="B" unicode="B" horiz-adv-x="1499" 
d="M1073 870q137 -20 219 -108t82 -219q0 -158 -127 -310l-532 -233h-482v1495h619q215 0 328.5 -80t113.5 -231q0 -117 -116 -269zM854 1286h-313v-412h389q51 109 51 181q0 82 -28.5 134t-98.5 97zM1008 209q51 113 51 203q0 164 -131 254h-387v-457h467z" />
    <glyph glyph-name="C" unicode="C" horiz-adv-x="1538" 
d="M922 -29q-358 0 -571.5 203t-213.5 543q0 266 133 538l607 269q184 0 338.5 -61.5t248.5 -178.5l-256 -223q-117 150 -288 219h-418q-49 -223 -49 -371q0 -328 140 -499.5t411 -171.5q82 0 155.5 25.5t198.5 86.5l47 -71l-318 -308h-165z" />
    <glyph glyph-name="D" unicode="D" horiz-adv-x="1714" 
d="M848 1495q352 0 537.5 -183.5t185.5 -527.5q0 -281 -133 -551l-604 -233h-601v1495h615zM1206 209q49 221 49 383q0 514 -352 694h-362v-1077h665z" />
    <glyph glyph-name="E" unicode="E" horiz-adv-x="1333" 
d="M541 666v-457h688l-72 -209h-924v1495h996l-72 -209h-616v-412h571l-70 -208h-501z" />
    <glyph glyph-name="F" unicode="F" horiz-adv-x="1292" 
d="M1157 1286h-616v-424h571l-70 -209h-501v-653l-308 -10v1505h996z" />
    <glyph glyph-name="G" unicode="G" horiz-adv-x="1687" 
d="M1516 821v-850h-11l-258 234l-241 -234h-84q-358 0 -571.5 203t-213.5 543q0 266 133 538l607 269q184 0 338.5 -61.5t248.5 -178.5l-256 -223q-117 150 -288 219h-418q-49 -223 -49 -371q0 -328 132 -499.5t388 -171.5q104 0 235 57v317h-407l71 209h644z" />
    <glyph glyph-name="H" unicode="H" horiz-adv-x="1689" 
d="M1149 1495l307 10v-1505l-307 -10v676h-608v-666l-308 -10v1505l308 10v-631h608v621z" />
    <glyph glyph-name="I" unicode="I" horiz-adv-x="774" 
d="M233 1495l308 10v-1505l-308 -10v1505z" />
    <glyph glyph-name="J" unicode="J" horiz-adv-x="1155" 
d="M637 1495l307 10v-1259l-622 -275q-68 0 -139.5 59.5t-125.5 180.5l256 223q78 -135 156 -219h168v1280z" />
    <glyph glyph-name="K" unicode="K" horiz-adv-x="1529" 
d="M1479 33l-342 -62l-596 699v-670l-308 -10v1505l308 10v-702l600 692l293 29l-619 -711z" />
    <glyph glyph-name="L" unicode="L" horiz-adv-x="1247" 
d="M541 209h647l-72 -209h-883v1495l308 10v-1296z" />
    <glyph glyph-name="M" unicode="M" horiz-adv-x="2095" 
d="M1913 0l-303 -29l-80 1172l-395 -1143l-271 -29l-407 1162l-80 -1133l-199 -29l109 1524l354 29l408 -1168l393 1139l364 29z" />
    <glyph glyph-name="N" unicode="N" horiz-adv-x="1658" 
d="M1223 1495l202 10v-1505l-219 -16l-770 1042v-1026l-203 -10v1505l220 16l770 -1044v1028z" />
    <glyph glyph-name="O" unicode="O" horiz-adv-x="1798" 
d="M877 1524q358 0 571 -203t213 -543q0 -266 -133 -538l-606 -269q-358 0 -571.5 203t-213.5 543q0 266 133 538zM1296 215q49 223 50 371q0 506 -408 694h-436q-49 -223 -49 -371q0 -506 407 -694h436z" />
    <glyph glyph-name="P" unicode="P" horiz-adv-x="1447" 
d="M836 1495q516 0 516 -381q0 -168 -127 -326l-531 -233h-153v-555l-308 -10v1505h603zM987 764q51 119 51 209q0 211 -141 313h-356v-522h446z" />
    <glyph glyph-name="Q" unicode="Q" horiz-adv-x="1798" 
d="M1528 240l-150 -66l197 -283l-283 -57l-159 232l-211 -95q-358 0 -571.5 203t-213.5 543q0 266 133 538l607 269q358 0 571 -203t213 -543q0 -266 -133 -538zM860 215h168l-221 320l246 110l256 -369q37 186 37 310q0 506 -408 694h-436q-49 -223 -49 -371
q-1 -506 407 -694z" />
    <glyph glyph-name="R" unicode="R" horiz-adv-x="1540" 
d="M1135 -29l-512 598h-82v-569l-308 -10v1505h588q516 0 516 -375q0 -162 -123 -323l-282 -125l547 -639zM541 1286v-508h432q51 119 51 203q0 203 -141 305h-342z" />
    <glyph glyph-name="S" unicode="S" horiz-adv-x="1380" 
d="M686 -29q-391 0 -584 240l254 221q109 -141 260 -217h361q31 78 31 156q0 111 -78 159t-291 95q-248 55 -373 143t-125 256q0 123 95 248l456 252q381 0 576 -240l-254 -221q-109 141 -260 217h-351q-31 -61 -30 -137q0 -88 83 -139.5t308 -98.5q252 -53 362.5 -142
t110.5 -271q0 -115 -88 -267z" />
    <glyph glyph-name="T" unicode="T" horiz-adv-x="1288" 
d="M1237 1495l-72 -209h-362v-1286l-307 -10v1296h-437l72 209h1106z" />
    <glyph glyph-name="U" unicode="U" horiz-adv-x="1646" 
d="M1106 1495l307 10v-1505l-307 -10v170l-424 -189q-246 0 -357.5 123t-111.5 410v991l307 10v-946q0 -82 7.5 -134t32 -93t56 -62.5t99 -35t142.5 -16.5t200 -3q49 213 49 371v909z" />
    <glyph glyph-name="V" unicode="V" horiz-adv-x="1447" 
d="M1174 1495l219 29l-557 -1524l-246 -29l-522 1497l303 56l395 -1139z" />
    <glyph glyph-name="W" unicode="W" horiz-adv-x="2338" 
d="M2062 1495l217 29l-516 -1524l-247 -29l-353 1104l-364 -1075l-246 -29l-481 1497l301 56l356 -1114l371 1085l237 29l357 -1116z" />
    <glyph glyph-name="X" unicode="X" horiz-adv-x="1464" 
d="M1401 29l-322 -58l-389 594l-387 -565l-240 -10l512 749l-477 727l322 58l352 -537l346 508l240 10l-473 -690z" />
    <glyph glyph-name="Y" unicode="Y" horiz-adv-x="1454" 
d="M1415 1524l-545 -901v-623l-307 -10v590l-512 886l318 58l401 -697l404 668z" />
    <glyph glyph-name="Z" unicode="Z" horiz-adv-x="1333" 
d="M1257 1495v-10l-776 -1198h727l-98 -287h-1038v10l776 1198h-709l97 287h1021z" />
    <glyph glyph-name="bracketleft" unicode="[" horiz-adv-x="794" 
d="M438 1389v-1491h291l-70 -209h-434v1908h504l-70 -208h-221z" />
    <glyph glyph-name="backslash" unicode="\" horiz-adv-x="669" 
d="M637 -311l-211 -11l-393 1919l211 11z" />
    <glyph glyph-name="bracketright" unicode="]" horiz-adv-x="794" 
d="M137 1597h434v-1908h-505l71 209h221v1491h-292z" />
    <glyph glyph-name="asciicircum" unicode="^" horiz-adv-x="1155" 
d="M989 748l-303 -56l-156 428l-145 -399l-219 -29l293 803l246 29z" />
    <glyph glyph-name="underscore" unicode="_" horiz-adv-x="1214" 
d="M1061 -84l-70 -209h-839l71 209h838z" />
    <glyph glyph-name="grave" unicode="`" horiz-adv-x="770" 
d="M373 1196l-207 315l305 54l131 -365z" />
    <glyph glyph-name="a" unicode="a" horiz-adv-x="1214" 
d="M573 1112q483 0 484 -471v-641l-299 -10v121l-332 -140q-156 0 -242 75t-86 226q0 119 54 240l600 203q-35 188 -277 188q-115 0 -291 -90l-37 55l252 244h174zM723 166q35 147 35 262v107h-320q-43 -121 -43 -213q0 -100 62.5 -128t265.5 -28z" />
    <glyph glyph-name="b" unicode="b" horiz-adv-x="1472" 
d="M817 1112q252 0 404.5 -149.5t152.5 -397.5q0 -168 -98 -370l-498 -224q-51 0 -133 60.5t-160 152.5v-184l-299 -10v1505l299 10v-534zM1040 166q35 158 35 262q0 352 -268 490h-287q-35 -156 -35 -263q0 -352 269 -489h286z" />
    <glyph glyph-name="c" unicode="c" horiz-adv-x="1169" 
d="M653 -29q-252 0 -403.5 149.5t-151.5 397.5q0 168 99 371l532 223q254 0 399 -166l-229 -201q-72 113 -199 173h-268q-35 -156 -35 -263q0 -227 101.5 -351t267.5 -124q111 0 278 90l37 -55l-252 -244h-176z" />
    <glyph glyph-name="d" unicode="d" horiz-adv-x="1470" 
d="M987 1495l299 10v-1505l-299 -10v123l-332 -142q-252 0 -404.5 149.5t-152.5 397.5q0 168 99 371l497 223q51 0 133 -60.5t160 -152.5v596zM952 166q35 158 35 262q0 352 -268 490h-287q-35 -156 -35 -263q0 -352 269 -489h286z" />
    <glyph glyph-name="e" unicode="e" horiz-adv-x="1265" 
d="M1174 616q0 -72 -13 -141h-743q37 -143 128 -219t220 -76q111 0 278 90l37 -55l-252 -244h-176q-252 0 -403.5 149.5t-151.5 397.5q0 168 99 371l532 223q205 0 325 -138.5t120 -357.5zM719 918h-287q-33 -141 -35 -240h471q-8 96 -41.5 148.5t-107.5 91.5z" />
    <glyph glyph-name="f" unicode="f" horiz-adv-x="890" 
d="M430 1184q0 -39 24.5 -58.5t96.5 -42.5h319l-69 -209h-250v-874l-297 -10v884h-215v5l215 204v109l373 332q109 0 182.5 -37t132.5 -125l-225 -188q-49 63 -109 106h-162q-16 -69 -16 -96z" />
    <glyph glyph-name="g" unicode="g" horiz-adv-x="1251" 
d="M786 184q209 0 298.5 -53t89.5 -178q0 -123 -52 -229l-647 -224q-154 0 -235.5 34t-176.5 134l226 197q82 -98 174 -154h465q14 37 14 113q0 47 -27.5 68.5t-91.5 21.5h-405q-285 0 -285 244v32l164 185q-162 106 -162 317q0 106 72 258l387 162q92 0 168 -29h440
l-69 -209l-168 25q37 -76 36 -172q0 -102 -71 -258l-387 -162q-111 0 -199 41v-115q0 -27 11.5 -38t39.5 -11h391zM424 918q-18 -82 -18 -146q0 -197 147 -270h158q20 92 20 145q0 197 -149 271h-158z" />
    <glyph glyph-name="h" unicode="h" horiz-adv-x="1363" 
d="M817 1112q119 0 197 -37t117.5 -114.5t54 -169t14.5 -226.5v-565l-299 -10v454q0 98 -1 150.5t-7 113t-13.5 86t-31 55.5t-45 38t-68.5 18t-92 11.5t-123 1.5q-35 -156 -35 -263v-655l-299 -10v1505l299 10v-532z" />
    <glyph glyph-name="i" unicode="i" horiz-adv-x="669" 
d="M311 1192l-211 209l258 164l211 -207zM186 -10v1093l297 11v-1094z" />
    <glyph glyph-name="j" unicode="j" horiz-adv-x="673" 
d="M311 1192l-211 209l258 164l211 -207zM154 -500l-56 37q90 168 90 277v1269l297 11v-1250z" />
    <glyph glyph-name="k" unicode="k" horiz-adv-x="1267" 
d="M1241 31l-332 -60l-424 514v-485l-299 -10v1505l299 10v-899l443 477l303 29l-467 -500z" />
    <glyph glyph-name="l" unicode="l" horiz-adv-x="671" 
d="M186 -10v1505l299 10v-1505z" />
    <glyph glyph-name="m" unicode="m" horiz-adv-x="2017" 
d="M1491 1112q211 0 286.5 -136t75.5 -411v-565l-299 -10v454v150.5t-6 112t-12 87t-27.5 55.5t-41 39t-62.5 17t-85 11.5t-116 1.5q-35 -147 -35 -293v-625l-299 -10v454v150.5t-6 113t-13 86t-27.5 55.5t-41 39t-63.5 17t-85 11.5t-116 1.5q-35 -156 -35 -263v-655
l-297 -10v1093l297 11v-121l324 139q217 0 301 -164z" />
    <glyph glyph-name="n" unicode="n" horiz-adv-x="1361" 
d="M815 1112q119 0 197 -37t117.5 -114.5t54 -169t14.5 -226.5v-565l-297 -10v454q0 98 -1 150.5t-8 113t-14.5 86t-30 55.5t-45 39t-69.5 18t-92 10.5t-123 1.5q-35 -156 -35 -263v-655l-297 -10v1093l297 11v-121z" />
    <glyph glyph-name="o" unicode="o" horiz-adv-x="1384" 
d="M655 -29q-252 0 -404.5 149.5t-152.5 397.5q0 168 99 371l532 223q252 0 404.5 -149.5t152.5 -397.5q0 -168 -98 -370zM666 166h286q35 156 35 262q0 352 -268 490h-287q-35 -156 -35 -263q1 -352 269 -489z" />
    <glyph glyph-name="p" unicode="p" horiz-adv-x="1472" 
d="M815 1112q252 0 404.5 -149.5t152.5 -397.5q0 -168 -98 -370l-498 -224q-51 0 -132 60.5t-161 152.5v-655l-297 -10v1564l297 11v-123zM1040 166q35 158 35 262q0 352 -268 490h-289q-35 -156 -35 -263q0 -352 269 -489h288z" />
    <glyph glyph-name="q" unicode="q" horiz-adv-x="1474" 
d="M989 1083l299 11v-1565l-299 -10v594l-332 -142q-252 0 -404.5 149.5t-152.5 397.5q0 168 99 371l497 223q51 0 133 -60.5t160 -152.5v184zM954 166q35 158 35 262q0 352 -268 490h-287q-35 -156 -35 -263q0 -352 269 -489h286z" />
    <glyph glyph-name="r" unicode="r" horiz-adv-x="1026" 
d="M700 1112q102 0 174 -42t136 -142l-230 -203q-47 68 -100 104h-162q-35 -137 -35 -219v-610l-297 -10v1093l297 11v-199z" />
    <glyph glyph-name="s" unicode="s" horiz-adv-x="1071" 
d="M494 -29q-141 0 -239.5 38t-180.5 128l229 197q70 -106 199 -168h233q27 47 27 96q0 57 -56.5 88t-216.5 66q-188 45 -285.5 112.5t-97.5 186.5q0 84 60 174l416 223q262 0 409 -166l-229 -190q-70 102 -199 162h-227q-27 -47 -27 -91q0 -51 62.5 -79.5t234.5 -67.5
q188 -43 273.5 -113.5t85.5 -193.5q0 -100 -56 -178z" />
    <glyph glyph-name="t" unicode="t" horiz-adv-x="944" 
d="M852 246l37 -58l-225 -217h-43q-375 0 -375 394v509h-213v5l512 489v-285h319l-71 -209h-248v-518q0 -176 137 -176q51 0 170 66z" />
    <glyph glyph-name="u" unicode="u" horiz-adv-x="1349" 
d="M864 1083l299 11v-1094l-299 -10v121l-332 -140q-92 0 -157.5 26t-106.5 71t-64.5 116.5t-31.5 149.5t-8 184v565l299 11v-455v-150.5t7 -113t14.5 -86t29 -55t43 -38t66.5 -18.5t88 -11t118 -1q35 156 35 262v655z" />
    <glyph glyph-name="v" unicode="v" horiz-adv-x="1159" 
d="M903 1083l232 29l-451 -1112l-211 -29l-440 1088l299 53l291 -733z" />
    <glyph glyph-name="w" unicode="w" horiz-adv-x="1861" 
d="M1604 1083l229 29l-416 -1112l-227 -29l-266 713l-256 -684l-224 -29l-407 1088l297 53l264 -731l254 702l231 29l267 -733z" />
    <glyph glyph-name="x" unicode="x" horiz-adv-x="1204" 
d="M1167 29l-323 -58l-277 379l-258 -350l-278 -29l413 549l-387 535l322 57l258 -356l242 327l278 29l-395 -526z" />
    <glyph glyph-name="y" unicode="y" horiz-adv-x="1157" 
d="M899 1083l234 29l-641 -1583l-234 -29l203 498l-428 1061l297 53l291 -725z" />
    <glyph glyph-name="z" unicode="z" horiz-adv-x="1077" 
d="M442 260h566l-88 -260h-871v16l561 807h-508l88 260h814v-16z" />
    <glyph glyph-name="braceleft" unicode="{" horiz-adv-x="784" 
d="M485 354q0 -113 1 -170t10.5 -125.5t25 -104.5t46 -85t72.5 -88t108 -92l-226 -11q-164 123 -213 237t-49 374v80q0 104 -20.5 137t-85.5 33h-101l72 209h29q66 0 86 32.5t20 137.5v69q0 260 49 374t213 236l226 11q-66 -53 -108 -92t-72.5 -88.5t-46 -85t-25 -104.5
t-10.5 -126t-1 -170v-57q0 -129 -42 -174t-160 -68q119 -23 160.5 -68t41.5 -174v-47z" />
    <glyph glyph-name="bar" unicode="|" horiz-adv-x="679" 
d="M233 -322v1919l213 11v-1919z" />
    <glyph glyph-name="braceright" unicode="}" horiz-adv-x="784" 
d="M299 932q0 113 -1 170t-10 125.5t-24.5 104.5t-46.5 85t-73 88t-107 92l223 11q164 -123 213 -237t49 -374v-79q0 -104 20.5 -137t86.5 -33h100l-70 -209h-30q-66 0 -86.5 -33t-20.5 -137v-70q0 -260 -49 -373.5t-213 -236.5l-223 -11q66 53 107.5 92.5t72.5 88.5
t46.5 85t24.5 104.5t10 125.5t1 170v57q0 129 42 174.5t161 67.5q-119 23 -161 68t-42 174v47z" />
    <glyph glyph-name="asciitilde" unicode="~" horiz-adv-x="1216" 
d="M799 420q-70 0 -148 45t-207 160h-59q-20 -72 -20 -183l-213 -10q0 176 69 328l195 80q70 0 147.5 -45t208.5 -160h59q20 82 21 182l211 10q0 -174 -68 -327z" />
    <glyph glyph-name="uni00A0" unicode="&#xa0;" horiz-adv-x="552" 
 />
    <glyph glyph-name="exclamdown" unicode="&#xa1;" horiz-adv-x="819" 
d="M434 1112l219 -217l-266 -172l-221 217zM563 -412l-307 -10l37 989l233 11z" />
    <glyph glyph-name="cent" unicode="&#xa2;" horiz-adv-x="1169" 
d="M766 180q111 0 278 90l37 -55l-252 -244h-51v-211l-299 -10v244q-178 47 -279.5 185t-101.5 339q0 168 99 371l282 119v315l299 10v-223q221 -16 350 -164l-229 -201q-72 113 -199 173h-268q-35 -156 -35 -263q0 -227 101.5 -351t267.5 -124z" />
    <glyph glyph-name="sterling" unicode="&#xa3;" horiz-adv-x="1626" 
d="M743 614v-327h711l-96 -287h-1192l96 287h174v327h-270l72 209h198v6q0 260 82 424l506 271q270 0 436 -240l-256 -223q-68 94 -109.5 137t-107.5 82h-219q-25 -137 -25 -328v-129h455l-72 -209h-383z" />
    <glyph glyph-name="currency" unicode="&#xa4;" horiz-adv-x="1482" 
d="M1139 672q0 -86 -31 -156l172 -172l-205 -217l-184 182q-74 -27 -148 -26q-76 0 -151 26l-178 -176l-217 203l176 180q-31 70 -31 156q0 88 33 155l-172 172l203 218l184 -185q76 27 153 27q74 0 148 -27l178 178l217 -204l-178 -179q31 -71 31 -155zM741 485
q86 0 136.5 50.5t50.5 136.5t-50.5 135t-136.5 49t-136 -49t-50 -135t51 -136.5t135 -50.5z" />
    <glyph glyph-name="yen" unicode="&#xa5;" horiz-adv-x="1396" 
d="M891 688l-35 -63v-72h406l-72 -209h-334v-344l-307 -10v354h-406l72 209h334v29l-60 106h-346l72 209h156l-320 569l316 58l387 -699l368 670l236 29l-350 -627h254l-72 -209h-299z" />
    <glyph glyph-name="brokenbar" unicode="&#xa6;" horiz-adv-x="679" 
d="M233 776v821l213 11v-822zM233 -322v844l213 10v-843z" />
    <glyph glyph-name="section" unicode="&#xa7;" horiz-adv-x="1286" 
d="M1075 784q0 -100 -55 -178l-76 -41q125 -68 125 -196q0 -86 -59 -174l-416 -224q-262 0 -410 166l230 191q70 -102 198 -162h228q27 47 26 90q0 51 -62.5 80t-234.5 67q-188 43 -273 114t-85 194q0 100 55 178l78 41q-127 66 -127 196q0 86 59 174l416 224
q264 0 410 -166l-230 -191q-70 102 -198 162h-228q-27 -47 -26 -90q0 -51 62.5 -80t234.5 -67q190 -41 274 -113t84 -195zM686 651q90 -20 172 -47q16 39 16 70q0 68 -55 100.5t-217 69.5q-90 18 -174 47q-14 -35 -14 -70q0 -68 55 -100.5t217 -69.5z" />
    <glyph glyph-name="dieresis" unicode="&#xa8;" horiz-adv-x="1304" 
d="M377 1192l-211 209l258 164l211 -207zM881 1192l-211 209l258 164l211 -207z" />
    <glyph glyph-name="copyright" unicode="&#xa9;" horiz-adv-x="1871" 
d="M936 -29q-346 0 -572.5 220.5t-226.5 556t226.5 556t572.5 220.5t572.5 -220.5t226.5 -556t-226.5 -556t-572.5 -220.5zM936 111q285 0 462 178t177 461q0 281 -177 457.5t-462 176.5t-462 -177t-177 -457q0 -283 177 -461t462 -178zM952 358q-174 0 -278.5 102.5
t-104.5 270.5q0 117 68 256l334 148q188 0 289 -119l-146 -127q-57 76 -143 117h-191q-25 -106 -24 -181q0 -158 69.5 -242.5t188.5 -84.5q76 0 186 59l25 -37l-166 -162h-107z" />
    <glyph glyph-name="ordfeminine" unicode="&#xaa;" horiz-adv-x="1196" 
d="M561 1524q406 0 406 -377v-512l-258 -8v96l-265 -111q-264 0 -264 240q0 90 43 192l482 162q-29 141 -224 142q-111 0 -231 -64l-29 45l201 195h139zM682 782q27 121 27 195v70h-256q-16 -82 -17 -156q0 -70 48 -89.5t198 -19.5z" />
    <glyph glyph-name="guillemotleft" unicode="&#xab;" horiz-adv-x="1486" 
d="M166 575v152l510 379v-254l-275 -199l275 -200v-254zM1321 1106v-254l-277 -199l277 -200v-254l-510 376v152z" />
    <glyph glyph-name="logicalnot" unicode="&#xac;" horiz-adv-x="1214" 
d="M223 803h838v-420l-217 -10v221h-692z" />
    <glyph glyph-name="uni00AD" unicode="&#xad;" horiz-adv-x="1093" 
d="M940 743l-70 -208h-718l71 208h717z" />
    <glyph glyph-name="registered" unicode="&#xae;" horiz-adv-x="1492" 
d="M745.5 1524q241.5 0 399.5 -153.5t158 -387t-158 -387.5t-399.5 -154t-399.5 154t-158 387.5t158 387t399.5 153.5zM745.5 565q186.5 0 300 117t113.5 301t-114.5 301t-299 117t-299 -117t-114.5 -301t113.5 -301t300 -117zM903 1010l-94 -41l197 -232l-134 -22l-184 213
h-16v-203l-121 -4v536h211q184 0 184 -133q0 -59 -43 -114zM672 1178v-168h137q14 31 14 65q0 68 -43 103h-108z" />
    <glyph glyph-name="macron" unicode="&#xaf;" horiz-adv-x="890" 
d="M653 1243h-487l72 209h485z" />
    <glyph glyph-name="degree" unicode="&#xb0;" horiz-adv-x="1208" 
d="M606 889q-170 0 -284.5 111.5t-114.5 279.5q0 164 114.5 275.5t284.5 111.5q168 0 281.5 -111.5t113.5 -275.5q0 -166 -113.5 -278.5t-281.5 -112.5zM604 1106q78 0 124 46t46 126t-46 126t-124 46t-124 -46t-46 -126t46 -126t124 -46z" />
    <glyph glyph-name="plusminus" unicode="&#xb1;" horiz-adv-x="1214" 
d="M498 473v223h-346l71 209h275v215l217 10v-225h346l-70 -209h-276v-213zM152 150l71 208h838l-70 -208h-839z" />
    <glyph glyph-name="uni00B2" unicode="&#xb2;" horiz-adv-x="827" 
d="M348 979h412l-84 -248h-678v6q311 381 389 499t78 202q0 59 -42 95t-110 36q-61 0 -109 -16.5t-130 -65.5l-41 63l248 240h98q86 0 158.5 -24.5t128 -89t55.5 -160.5q0 -106 -77 -218t-296 -319z" />
    <glyph glyph-name="uni00B3" unicode="&#xb3;" horiz-adv-x="878" 
d="M580 1352q109 -8 172 -67.5t63 -158.5q0 -121 -100 -247l-324 -177q-250 0 -381 150l209 182q74 -98 187 -147h126q29 57 29 143q0 88 -63 139h-297l63 185h217q12 47 12.5 98t-36.5 84t-103 33q-88 0 -252 -82l-41 63l248 240h125q143 0 228.5 -59.5t85.5 -182.5
q0 -47 -33 -125z" />
    <glyph glyph-name="acute" unicode="&#xb4;" horiz-adv-x="770" 
d="M395 1196l-229 4l133 365l303 -54z" />
    <glyph glyph-name="mu" unicode="&#xb5;" horiz-adv-x="1370" 
d="M887 1083l299 11v-1094l-299 -10v121l-332 -140q-27 0 -72 4v-446l-297 -10v1564l297 11v-455q0 -98 1 -150.5t7.5 -113t13.5 -86t29.5 -55t44 -39t66.5 -18.5t88 -10t119 -1q35 156 35 262v655z" />
    <glyph glyph-name="paragraph" unicode="&#xb6;" horiz-adv-x="1404" 
d="M221 1368l314 127l213 10v-1505l-213 -10v710q-182 18 -288 123t-106 267q0 131 80 278zM913 1495l213 10v-1505l-213 -10v1505z" />
    <glyph glyph-name="periodcentered" unicode="&#xb7;" horiz-adv-x="819" 
d="M387 520l-221 215l268 174l219 -217z" />
    <glyph glyph-name="cedilla" unicode="&#xb8;" horiz-adv-x="948" 
d="M508 -111q131 -2 201.5 -47t70.5 -127q0 -96 -71 -170l-299 -120q-78 0 -134.5 28.5t-109.5 100.5l172 149q49 -82 111 -115h59q14 27 14 64q-2 72 -56 96.5t-183 24.5l49 227l203 14z" />
    <glyph glyph-name="uni00B9" unicode="&#xb9;" horiz-adv-x="600" 
d="M86 1761l363 29v-1059l-246 -10v858l-185 -18z" />
    <glyph glyph-name="ordmasculine" unicode="&#xba;" horiz-adv-x="1171" 
d="M557 612q-203 0 -324.5 120t-121.5 317q0 135 77 297l426 178q201 0 324 -119t123 -318q0 -137 -80 -296zM567 791h211q25 111 25 192q0 262 -199 363h-209q-27 -121 -26 -193q-1 -264 198 -362z" />
    <glyph glyph-name="guillemotright" unicode="&#xbb;" horiz-adv-x="1486" 
d="M166 852v254l510 -379v-152l-510 -376v254l276 200zM811 1106l510 -379v-152l-510 -376v254l274 200l-274 199v254z" />
    <glyph glyph-name="onequarter" unicode="&#xbc;" horiz-adv-x="1929" 
d="M449 465l-246 -10v858l-185 -19l68 201l363 29v-1059zM1167 1495l242 10l-813 -1505l-242 -10zM1909 412l-64 -187h-116v-225l-246 -10v235h-441l-43 86l484 719l246 29v-647h180zM1251 412h232v356z" />
    <glyph glyph-name="onehalf" unicode="&#xbd;" horiz-adv-x="1990" 
d="M449 465l-246 -10v858l-185 -19l68 201l363 29v-1059zM1167 1495l242 10l-813 -1505l-242 -10zM1511 248h412l-84 -248h-678v6q311 381 389 499t78 202q0 59 -42 95t-109 36q-61 0 -109.5 -16.5t-130.5 -65.5l-41 63l248 240h98q86 0 159 -24.5t128 -89t55 -161.5
q0 -106 -77 -217.5t-296 -318.5z" />
    <glyph glyph-name="threequarters" unicode="&#xbe;" horiz-adv-x="2207" 
d="M815 860q0 -121 -100 -248l-324 -176q-250 0 -381 150l209 182q74 -98 187 -147h126q29 57 29 143q0 88 -63 139h-297l63 184h217q12 47 12.5 98.5t-36.5 84.5t-103 33q-88 0 -252 -82l-41 63l248 240h125q143 0 228.5 -59.5t85.5 -182.5q0 -47 -33 -125l-135 -72
q109 -8 172 -67.5t63 -157.5zM1446 1495l242 10l-814 -1505l-241 -10zM2187 412l-63 -187h-117v-225l-246 -10v235h-440l-43 86l483 719l246 29v-647h180zM1530 412h231v356z" />
    <glyph glyph-name="questiondown" unicode="&#xbf;" horiz-adv-x="1118" 
d="M883 895l-267 -172l-219 217l267 172zM987 -61l47 -72l-317 -307h-115q-221 0 -354 104.5t-133 278.5q0 147 108.5 246.5t290.5 119.5l10 258l232 11l14 -373q-340 0 -340 -191q0 -84 61.5 -136t161.5 -52q78 0 144.5 22.5t189.5 90.5z" />
    <glyph glyph-name="Agrave" unicode="&#xc0;" horiz-adv-x="1474" 
d="M864 1612l-229 -4l-207 315l305 53zM1104 -29l-152 416h-536l-142 -387l-219 -29l557 1524l246 29l549 -1497zM492 596h382l-190 522z" />
    <glyph glyph-name="Aacute" unicode="&#xc1;" horiz-adv-x="1474" 
d="M1042 1923l-206 -315l-230 4l133 364zM1104 -29l-152 416h-536l-142 -387l-219 -29l557 1524l246 29l549 -1497zM492 596h382l-190 522z" />
    <glyph glyph-name="Acircumflex" unicode="&#xc2;" horiz-adv-x="1474" 
d="M711 1774l-129 -160l-183 -10l207 344l254 28l227 -362l-245 -10zM1104 -29l-152 416h-536l-142 -387l-219 -29l557 1524l246 29l549 -1497zM492 596h382l-190 522z" />
    <glyph glyph-name="Atilde" unicode="&#xc3;" horiz-adv-x="1474" 
d="M588 1743q-12 -63 -13 -121l-176 -10q0 154 68 286l149 64q78 0 129.5 -34t106.5 -107h33q12 66 12 121l176 10q0 -156 -67 -285l-150 -63q-78 0 -129 32.5t-106 106.5h-33zM1104 -29l-152 416h-536l-142 -387l-219 -29l557 1524l246 29l549 -1497zM492 596h382l-190 522
z" />
    <glyph glyph-name="Adieresis" unicode="&#xc4;" horiz-adv-x="1474" 
d="M719 1769l-258 -165l-211 208l258 164zM1223 1769l-258 -165l-211 208l258 164zM1104 -29l-152 416h-536l-142 -387l-219 -29l557 1524l246 29l549 -1497zM492 596h382l-190 522z" />
    <glyph glyph-name="Aring" unicode="&#xc5;" horiz-adv-x="1474" 
d="M754 1604q-111 0 -179.5 55t-68.5 143q0 51 37 140l174 77q113 0 180.5 -54t67.5 -142q0 -57 -35 -140zM686 1876q-4 -33 -4 -43q0 -55 35 -84h69q4 33 5 43q0 53 -35 84h-70zM1104 -29l-152 416h-536l-142 -387l-219 -29l557 1524l246 29l549 -1497zM492 596h382
l-190 522z" />
    <glyph glyph-name="AE" unicode="&#xc6;" horiz-adv-x="1925" 
d="M1133 666v-457h688l-72 -209h-924v387h-409l-142 -387l-219 -29l557 1524h1209l-72 -209h-616v-412h593l-71 -208h-522zM494 596h331v690h-80z" />
    <glyph glyph-name="Ccedilla" unicode="&#xc7;" horiz-adv-x="1538" 
d="M1087 -29h-135l-18 -82q131 -2 201.5 -47t70.5 -127q0 -96 -71 -170l-299 -120q-78 0 -134.5 28.5t-109.5 100.5l172 149q49 -82 110 -115h60q14 27 14 64q-2 72 -56 96.5t-183 24.5l45 211q-287 47 -452 241.5t-165 491.5q0 266 133 538l607 269q184 0 338.5 -61.5
t248.5 -178.5l-256 -223q-117 150 -288 219h-418q-49 -223 -49 -371q0 -328 140 -499.5t411 -171.5q82 0 155.5 25.5t198.5 86.5l47 -71z" />
    <glyph glyph-name="Egrave" unicode="&#xc8;" horiz-adv-x="1333" 
d="M856 1612l-229 -4l-207 315l305 53zM541 666v-457h688l-72 -209h-924v1495h996l-72 -209h-616v-412h571l-70 -208h-501z" />
    <glyph glyph-name="Eacute" unicode="&#xc9;" horiz-adv-x="1333" 
d="M1034 1923l-207 -315l-229 4l133 364zM541 666v-457h688l-72 -209h-924v1495h996l-72 -209h-616v-412h571l-70 -208h-501z" />
    <glyph glyph-name="Ecircumflex" unicode="&#xca;" horiz-adv-x="1333" 
d="M702 1774l-129 -160l-182 -10l207 344l254 28l227 -362l-245 -10zM541 666v-457h688l-72 -209h-924v1495h996l-72 -209h-616v-412h571l-70 -208h-501z" />
    <glyph glyph-name="Edieresis" unicode="&#xcb;" horiz-adv-x="1333" 
d="M711 1769l-258 -165l-211 208l258 164zM1214 1769l-258 -165l-211 208l259 164zM541 666v-457h688l-72 -209h-924v1495h996l-72 -209h-616v-412h571l-70 -208h-501z" />
    <glyph glyph-name="Igrave" unicode="&#xcc;" horiz-adv-x="774" 
d="M289 1608l-207 315l305 53l131 -364zM233 1495l308 10v-1505l-308 -10v1505z" />
    <glyph glyph-name="Iacute" unicode="&#xcd;" horiz-adv-x="774" 
d="M489 1608l-229 4l133 364l303 -53zM233 1495l308 10v-1505l-308 -10v1505z" />
    <glyph glyph-name="Icircumflex" unicode="&#xce;" horiz-adv-x="774" 
d="M362 1774l-129 -160l-182 -10l207 344l254 28l227 -362l-245 -10zM233 -10v1505l308 10v-1505z" />
    <glyph glyph-name="Idieresis" unicode="&#xcf;" horiz-adv-x="774" 
d="M115 1604l-211 208l258 164l211 -207zM618 1604l-210 208l258 164l211 -207zM233 1495l308 10v-1505l-308 -10v1505z" />
    <glyph glyph-name="Eth" unicode="&#xd0;" horiz-adv-x="1714" 
d="M848 1495q352 0 537.5 -183.5t185.5 -527.5q0 -281 -133 -551l-604 -233h-601v635h-192l72 209h120v651h615zM1206 209q49 221 49 383q0 514 -352 694h-362v-442h309l-70 -209h-239v-426h665z" />
    <glyph glyph-name="Ntilde" unicode="&#xd1;" horiz-adv-x="1658" 
d="M680 1743q-12 -63 -12 -121l-176 -10q0 154 67 286l150 64q78 0 129 -34t106 -107h33q12 66 12 121l176 10q0 -156 -67 -285l-150 -63q-78 0 -129 32.5t-106 106.5h-33zM1223 1495l202 10v-1505l-219 -16l-770 1042v-1026l-203 -10v1505l220 16l770 -1044v1028z" />
    <glyph glyph-name="Ograve" unicode="&#xd2;" horiz-adv-x="1798" 
d="M1028 1612l-229 -4l-207 315l305 53zM877 1524q358 0 571 -203t213 -543q0 -266 -133 -538l-606 -269q-358 0 -571.5 203t-213.5 543q0 266 133 538zM1296 215q49 223 50 371q0 506 -408 694h-436q-49 -223 -49 -371q0 -506 407 -694h436z" />
    <glyph glyph-name="Oacute" unicode="&#xd3;" horiz-adv-x="1798" 
d="M1206 1923l-207 -315l-229 4l133 364zM877 1524q358 0 571 -203t213 -543q0 -266 -133 -538l-606 -269q-358 0 -571.5 203t-213.5 543q0 266 133 538zM1296 215q49 223 50 371q0 506 -408 694h-436q-49 -223 -49 -371q0 -506 407 -694h436z" />
    <glyph glyph-name="Ocircumflex" unicode="&#xd4;" horiz-adv-x="1798" 
d="M872 1774l-129 -160l-182 -10l207 344l254 28l227 -362l-245 -10zM877 1524q358 0 571 -203t213 -543q0 -266 -133 -538l-606 -269q-358 0 -571.5 203t-213.5 543q0 266 133 538zM1296 215q49 223 50 371q0 506 -408 694h-436q-49 -223 -49 -371q0 -506 407 -694h436z
" />
    <glyph glyph-name="Otilde" unicode="&#xd5;" horiz-adv-x="1798" 
d="M750 1743q-12 -63 -13 -121l-176 -10q0 154 68 286l149 64q78 0 129 -34t107 -107h33q12 66 12 121l176 10q0 -156 -68 -285l-149 -63q-78 0 -129 32.5t-107 106.5h-32zM877 1524q358 0 571 -203t213 -543q0 -266 -133 -538l-606 -269q-358 0 -571.5 203t-213.5 543
q0 266 133 538zM1296 215q49 223 50 371q0 506 -408 694h-436q-49 -223 -49 -371q0 -506 407 -694h436z" />
    <glyph glyph-name="Odieresis" unicode="&#xd6;" horiz-adv-x="1798" 
d="M881 1769l-258 -165l-211 208l258 164zM1384 1769l-258 -165l-211 208l259 164zM877 1524q358 0 571 -203t213 -543q0 -266 -133 -538l-606 -269q-358 0 -571.5 203t-213.5 543q0 266 133 538zM1296 215q49 223 50 371q0 506 -408 694h-436q-49 -223 -49 -371
q0 -506 407 -694h436z" />
    <glyph glyph-name="multiply" unicode="&#xd7;" horiz-adv-x="1142" 
d="M991 915l-274 -274l274 -274l-145 -146l-275 275l-274 -275l-145 146l274 274l-274 274l145 146l274 -275l275 275z" />
    <glyph glyph-name="Oslash" unicode="&#xd8;" horiz-adv-x="1798" 
d="M1559 1182q102 -170 102 -404q0 -266 -133 -538l-606 -269q-340 0 -553 187l-215 -185v269l84 73q-100 170 -101 402q0 266 133 538l607 269q344 0 553 -187l212 185v-269zM453 909q0 -199 65 -354l649 559q-88 100 -229 166h-436q-49 -224 -49 -371zM1296 215
q49 223 50 371q0 205 -68 354l-649 -557q90 -102 231 -168h436z" />
    <glyph glyph-name="Ugrave" unicode="&#xd9;" horiz-adv-x="1646" 
d="M948 1612l-229 -4l-207 315l305 53zM1106 1495l307 10v-1505l-307 -10v170l-424 -189q-246 0 -357.5 123t-111.5 410v991l307 10v-946q0 -82 7.5 -134t32 -93t56 -62.5t99 -35t142.5 -16.5t200 -3q49 213 49 371v909z" />
    <glyph glyph-name="Uacute" unicode="&#xda;" horiz-adv-x="1646" 
d="M1126 1923l-206 -315l-230 4l133 364zM1106 1495l307 10v-1505l-307 -10v170l-424 -189q-246 0 -357.5 123t-111.5 410v991l307 10v-946q0 -82 7.5 -134t32 -93t56 -62.5t99 -35t142.5 -16.5t200 -3q49 213 49 371v909z" />
    <glyph glyph-name="Ucircumflex" unicode="&#xdb;" horiz-adv-x="1646" 
d="M793 1774l-129 -160l-183 -10l207 344l254 28l227 -362l-245 -10zM1106 1495l307 10v-1505l-307 -10v170l-424 -189q-246 0 -357.5 123t-111.5 410v991l307 10v-946q0 -82 7.5 -134t32 -93t56 -62.5t99 -35t142.5 -16.5t200 -3q49 213 49 371v909z" />
    <glyph glyph-name="Udieresis" unicode="&#xdc;" horiz-adv-x="1646" 
d="M803 1769l-258 -165l-211 208l258 164zM1307 1769l-258 -165l-211 208l258 164zM1106 1495l307 10v-1505l-307 -10v170l-424 -189q-246 0 -357.5 123t-111.5 410v991l307 10v-946q0 -82 7.5 -134t32 -93t56 -62.5t99 -35t142.5 -16.5t200 -3q49 213 49 371v909z" />
    <glyph glyph-name="Yacute" unicode="&#xdd;" horiz-adv-x="1454" 
d="M1079 1923l-207 -315l-229 4l133 364zM1415 1524l-545 -901v-623l-307 -10v590l-512 886l318 58l401 -697l404 668z" />
    <glyph glyph-name="Thorn" unicode="&#xde;" horiz-adv-x="1449" 
d="M836 1260q516 0 516 -381q0 -168 -127 -326l-531 -234h-153v-319l-308 -10v1505l308 10v-245h295zM987 528q51 119 51 209q0 211 -141 314h-356v-523h446z" />
    <glyph glyph-name="germandbls" unicode="&#xdf;" horiz-adv-x="1429" 
d="M889 -29q-111 0 -182.5 37t-159.5 129l229 197q70 -106 199 -168h155q27 78 27 139q0 76 -43 113t-151 61q-72 18 -110 29.5t-89 33t-76.5 45t-44 61.5t-18.5 87q0 63 32.5 115.5t124.5 148.5q78 80 96.5 105.5t18.5 50.5q0 104 -154 174h-227q-35 -164 -35 -360v-969
l-297 -10v825q0 287 99 485l530 224q117 0 242 -66.5t125 -179.5q0 -45 -37 -96.5t-156 -175.5q-78 -82 -100.5 -110t-22.5 -48q0 -27 43 -45.5t158 -44.5q66 -16 106.5 -32.5t90 -48.5t74 -86t24.5 -130q0 -104 -55 -266z" />
    <glyph glyph-name="agrave" unicode="&#xe0;" horiz-adv-x="1214" 
d="M735 1200l-229 -4l-207 315l305 54zM573 1112q483 0 484 -471v-641l-299 -10v121l-332 -140q-156 0 -242 75t-86 226q0 119 54 240l600 203q-35 188 -277 188q-115 0 -291 -90l-37 55l252 244h174zM723 166q35 147 35 262v107h-320q-43 -121 -43 -213q0 -100 62.5 -128
t265.5 -28z" />
    <glyph glyph-name="aacute" unicode="&#xe1;" horiz-adv-x="1214" 
d="M913 1511l-206 -315l-230 4l133 365zM573 1112q483 0 484 -471v-641l-299 -10v121l-332 -140q-156 0 -242 75t-86 226q0 119 54 240l600 203q-35 188 -277 188q-115 0 -291 -90l-37 55l252 244h174zM723 166q35 147 35 262v107h-320q-43 -121 -43 -213q0 -100 62.5 -128
t265.5 -28z" />
    <glyph glyph-name="acircumflex" unicode="&#xe2;" horiz-adv-x="1214" 
d="M580 1362l-129 -160l-183 -10l207 344l254 29l227 -363l-245 -10zM573 1112q483 0 484 -471v-641l-299 -10v121l-332 -140q-156 0 -242 75t-86 226q0 119 54 240l600 203q-35 188 -277 188q-115 0 -291 -90l-37 55l252 244h174zM723 166q35 147 35 262v107h-320
q-43 -121 -43 -213q0 -100 62.5 -128t265.5 -28z" />
    <glyph glyph-name="atilde" unicode="&#xe3;" horiz-adv-x="1214" 
d="M457 1331q-12 -63 -13 -121l-176 -10q0 154 68 287l149 63q78 0 129.5 -33.5t106.5 -107.5h33q12 66 12 121l176 10q0 -156 -68 -285l-149 -63q-78 0 -129 32.5t-107 106.5h-32zM573 1112q483 0 484 -471v-641l-299 -10v121l-332 -140q-156 0 -242 75t-86 226
q0 119 54 240l600 203q-35 188 -277 188q-115 0 -291 -90l-37 55l252 244h174zM723 166q35 147 35 262v107h-320q-43 -121 -43 -213q0 -100 62.5 -128t265.5 -28z" />
    <glyph glyph-name="adieresis" unicode="&#xe4;" horiz-adv-x="1214" 
d="M588 1358l-258 -166l-211 209l258 164zM1092 1358l-258 -166l-211 209l258 164zM573 1112q483 0 484 -471v-641l-299 -10v121l-332 -140q-156 0 -242 75t-86 226q0 119 54 240l600 203q-35 188 -277 188q-115 0 -291 -90l-37 55l252 244h174zM723 166q35 147 35 262v107
h-320q-43 -121 -43 -213q0 -100 62.5 -128t265.5 -28z" />
    <glyph glyph-name="aring" unicode="&#xe5;" horiz-adv-x="1214" 
d="M625 1192q-111 0 -179.5 55.5t-68.5 143.5q0 51 37 139l174 78q113 0 180.5 -54.5t67.5 -142.5q0 -57 -35 -139zM557 1464q-4 -33 -4 -43q0 -55 35 -84h69q4 33 5 43q0 53 -35 84h-70zM573 1112q483 0 484 -471v-641l-299 -10v121l-332 -140q-156 0 -242 75t-86 226
q0 119 54 240l600 203q-35 188 -277 188q-115 0 -291 -90l-37 55l252 244h174zM723 166q35 147 35 262v107h-320q-43 -121 -43 -213q0 -100 62.5 -128t265.5 -28z" />
    <glyph glyph-name="ae" unicode="&#xe6;" horiz-adv-x="1925" 
d="M1833 616q0 -63 -10 -141h-746q37 -143 129 -219t221 -76q109 0 277 90l37 -55l-252 -244h-174q-285 0 -441 189l-448 -189q-156 0 -242 75t-86 226q0 119 54 240l600 203q-35 188 -277 188q-115 0 -291 -90l-37 55l252 244h174q291 0 406 -172l410 172
q205 0 324.5 -138.5t119.5 -357.5zM1378 918h-286q-33 -141 -35 -240h471q-8 96 -42 148.5t-108 91.5zM395 322q0 -100 62.5 -128t265.5 -28q35 147 35 262v107h-320q-43 -121 -43 -213z" />
    <glyph glyph-name="ccedilla" unicode="&#xe7;" horiz-adv-x="1169" 
d="M829 -29h-120l-19 -82q131 -2 202 -47t71 -127q0 -96 -72 -170l-299 -120q-78 0 -134.5 28.5t-109.5 100.5l172 149q49 -82 111 -115h59q14 27 15 64q-2 72 -56.5 96.5t-183.5 24.5l47 213q-193 41 -303.5 182t-110.5 350q0 168 99 371l532 223q254 0 399 -166l-229 -201
q-72 113 -199 173h-268q-35 -156 -35 -263q0 -227 101.5 -351t267.5 -124q111 0 278 90l37 -55z" />
    <glyph glyph-name="egrave" unicode="&#xe8;" horiz-adv-x="1265" 
d="M797 1200l-230 -4l-207 315l306 54zM1174 616q0 -72 -13 -141h-743q37 -143 128 -219t220 -76q111 0 278 90l37 -55l-252 -244h-176q-252 0 -403.5 149.5t-151.5 397.5q0 168 99 371l532 223q205 0 325 -138.5t120 -357.5zM719 918h-287q-33 -141 -35 -240h471
q-8 96 -41.5 148.5t-107.5 91.5z" />
    <glyph glyph-name="eacute" unicode="&#xe9;" horiz-adv-x="1265" 
d="M975 1511l-207 -315l-229 4l133 365zM1174 616q0 -72 -13 -141h-743q37 -143 128 -219t220 -76q111 0 278 90l37 -55l-252 -244h-176q-252 0 -403.5 149.5t-151.5 397.5q0 168 99 371l532 223q205 0 325 -138.5t120 -357.5zM719 918h-287q-33 -141 -35 -240h471
q-8 96 -41.5 148.5t-107.5 91.5z" />
    <glyph glyph-name="ecircumflex" unicode="&#xea;" horiz-adv-x="1265" 
d="M641 1362l-129 -160l-182 -10l207 344l254 29l227 -363l-246 -10zM1174 616q0 -72 -13 -141h-743q37 -143 128 -219t220 -76q111 0 278 90l37 -55l-252 -244h-176q-252 0 -403.5 149.5t-151.5 397.5q0 168 99 371l532 223q205 0 325 -138.5t120 -357.5zM719 918h-287
q-33 -141 -35 -240h471q-8 96 -41.5 148.5t-107.5 91.5z" />
    <glyph glyph-name="edieresis" unicode="&#xeb;" horiz-adv-x="1265" 
d="M649 1358l-258 -166l-211 209l258 164zM1153 1358l-258 -166l-211 209l258 164zM1174 616q0 -72 -13 -141h-743q37 -143 128 -219t220 -76q111 0 278 90l37 -55l-252 -244h-176q-252 0 -403.5 149.5t-151.5 397.5q0 168 99 371l532 223q205 0 325 -138.5t120 -357.5z
M719 918h-287q-33 -141 -35 -240h471q-8 96 -41.5 148.5t-107.5 91.5z" />
    <glyph glyph-name="igrave" unicode="&#xec;" horiz-adv-x="669" 
d="M233 1196l-206 315l305 54l131 -365zM186 -10v1093l297 11v-1094z" />
    <glyph glyph-name="iacute" unicode="&#xed;" horiz-adv-x="669" 
d="M434 1196l-229 4l133 365l303 -54zM186 -10v1093l297 11v-1094z" />
    <glyph glyph-name="icircumflex" unicode="&#xee;" horiz-adv-x="669" 
d="M440 1192l-131 170l-129 -160l-182 -10l207 344l254 29l227 -363zM186 -10v1093l297 11v-1094z" />
    <glyph glyph-name="idieresis" unicode="&#xef;" horiz-adv-x="669" 
d="M59 1192l-211 209l258 164l211 -207zM563 1192l-211 209l258 164l211 -207zM186 -10v1093l297 11v-1094z" />
    <glyph glyph-name="eth" unicode="&#xf0;" horiz-adv-x="1384" 
d="M690 1364q324 -197 460 -380t136 -419q0 -168 -98 -370l-533 -224q-252 0 -404.5 149.5t-152.5 397.5q0 168 99 371l450 194q-80 53 -145 93l-109 -109l-117 55l115 115q-98 55 -194 102l211 185q133 -70 174 -97l96 97l117 -56zM952 166q35 156 35 262q0 352 -268 490
h-287q-35 -156 -35 -263q0 -352 269 -489h286z" />
    <glyph glyph-name="ntilde" unicode="&#xf1;" horiz-adv-x="1361" 
d="M532 1331q-12 -63 -12 -121l-176 -10q0 154 68 287l149 63q78 0 129 -33.5t107 -107.5h32q12 66 13 121l176 10q0 -156 -68 -285l-149 -63q-78 0 -129 32.5t-107 106.5h-33zM815 1112q119 0 197 -37t117.5 -114.5t54 -169t14.5 -226.5v-565l-297 -10v454q0 98 -1 150.5
t-8 113t-14.5 86t-30 55.5t-45 39t-69.5 18t-92 10.5t-123 1.5q-35 -156 -35 -263v-655l-297 -10v1093l297 11v-121z" />
    <glyph glyph-name="ograve" unicode="&#xf2;" horiz-adv-x="1384" 
d="M592 1196l-207 315l305 54l131 -365zM655 -29q-252 0 -404.5 149.5t-152.5 397.5q0 168 99 371l532 223q252 0 404.5 -149.5t152.5 -397.5q0 -168 -98 -370zM666 166h286q35 156 35 262q0 352 -268 490h-287q-35 -156 -35 -263q1 -352 269 -489z" />
    <glyph glyph-name="oacute" unicode="&#xf3;" horiz-adv-x="1384" 
d="M793 1196l-230 4l133 365l303 -54zM655 -29q-252 0 -404.5 149.5t-152.5 397.5q0 168 99 371l532 223q252 0 404.5 -149.5t152.5 -397.5q0 -168 -98 -370zM666 166h286q35 156 35 262q0 352 -268 490h-287q-35 -156 -35 -263q1 -352 269 -489z" />
    <glyph glyph-name="ocircumflex" unicode="&#xf4;" horiz-adv-x="1384" 
d="M666 1362l-129 -160l-183 -10l207 344l254 29l227 -363l-245 -10zM729 1112q252 0 404.5 -149.5t152.5 -397.5q0 -168 -98 -370l-533 -224q-252 0 -404.5 149.5t-152.5 397.5q0 168 99 371zM952 166q35 156 35 262q0 352 -268 490h-287q-35 -156 -35 -263
q0 -352 269 -489h286z" />
    <glyph glyph-name="otilde" unicode="&#xf5;" horiz-adv-x="1384" 
d="M813 1192q-78 0 -129 32.5t-106 106.5h-33q-12 -63 -13 -121l-176 -10q0 154 68 287l149 63q78 0 129.5 -33.5t106.5 -107.5h33q12 66 12 121l176 10q0 -156 -67 -285zM655 -29q-252 0 -404.5 149.5t-152.5 397.5q0 168 99 371l532 223q252 0 404.5 -149.5t152.5 -397.5
q0 -168 -98 -370zM666 166h286q35 156 35 262q0 352 -268 490h-287q-35 -156 -35 -263q1 -352 269 -489z" />
    <glyph glyph-name="odieresis" unicode="&#xf6;" horiz-adv-x="1384" 
d="M418 1192l-211 209l258 164l211 -207zM922 1192l-211 209l258 164l211 -207zM655 -29q-252 0 -404.5 149.5t-152.5 397.5q0 168 99 371l532 223q252 0 404.5 -149.5t152.5 -397.5q0 -168 -98 -370zM666 166h286q35 156 35 262q0 352 -268 490h-287q-35 -156 -35 -263
q1 -352 269 -489z" />
    <glyph glyph-name="divide" unicode="&#xf7;" horiz-adv-x="1214" 
d="M608 834q-55 0 -91 31.5t-36 82.5t37 84t90.5 33t89 -34t35.5 -83t-36 -81.5t-89 -32.5zM1061 743l-70 -208h-839l75 208h834zM608 213q-55 0 -91 33t-36 84q0 49 37 81.5t90.5 32.5t89 -33.5t35.5 -80.5q0 -51 -36 -84t-89 -33z" />
    <glyph glyph-name="oslash" unicode="&#xf8;" horiz-adv-x="1433" 
d="M1358 1112v-246l-88 -61q45 -113 45 -240q0 -168 -98 -370l-533 -224q-248 0 -399 146l-209 -146v246l94 66q-43 104 -43 235q0 168 98 371l533 223q244 0 397 -141zM426 655q0 -94 23 -178l452 318q-66 80 -153 123h-287q-35 -157 -35 -263zM1016 428q0 94 -23 184
l-456 -319q61 -78 157 -127h287q35 156 35 262z" />
    <glyph glyph-name="ugrave" unicode="&#xf9;" horiz-adv-x="1349" 
d="M805 1200l-230 -4l-206 315l305 54zM864 1083l299 11v-1094l-299 -10v121l-332 -140q-92 0 -157.5 26t-106.5 71t-64.5 116.5t-31.5 149.5t-8 184v565l299 11v-455v-150.5t7 -113t14.5 -86t29 -55t43 -38t66.5 -18.5t88 -11t118 -1q35 156 35 262v655z" />
    <glyph glyph-name="uacute" unicode="&#xfa;" horiz-adv-x="1349" 
d="M983 1511l-207 -315l-229 4l133 365zM864 1083l299 11v-1094l-299 -10v121l-332 -140q-92 0 -157.5 26t-106.5 71t-64.5 116.5t-31.5 149.5t-8 184v565l299 11v-455v-150.5t7 -113t14.5 -86t29 -55t43 -38t66.5 -18.5t88 -11t118 -1q35 156 35 262v655z" />
    <glyph glyph-name="ucircumflex" unicode="&#xfb;" horiz-adv-x="1349" 
d="M649 1362l-129 -160l-182 -10l207 344l254 29l227 -363l-246 -10zM864 1083l299 11v-1094l-299 -10v121l-332 -140q-92 0 -157.5 26t-106.5 71t-64.5 116.5t-31.5 149.5t-8 184v565l299 11v-455v-150.5t7 -113t14.5 -86t29 -55t43 -38t66.5 -18.5t88 -11t118 -1
q35 156 35 262v655z" />
    <glyph glyph-name="udieresis" unicode="&#xfc;" horiz-adv-x="1349" 
d="M657 1358l-258 -166l-211 209l258 164zM1161 1358l-258 -166l-211 209l258 164zM864 1083l299 11v-1094l-299 -10v121l-332 -140q-92 0 -157.5 26t-106.5 71t-64.5 116.5t-31.5 149.5t-8 184v565l299 11v-455v-150.5t7 -113t14.5 -86t29 -55t43 -38t66.5 -18.5t88 -11
t118 -1q35 156 35 262v655z" />
    <glyph glyph-name="yacute" unicode="&#xfd;" horiz-adv-x="1157" 
d="M924 1511l-207 -315l-230 4l134 365zM899 1083l234 29l-641 -1583l-234 -29l203 498l-428 1061l297 53l291 -725z" />
    <glyph glyph-name="thorn" unicode="&#xfe;" horiz-adv-x="1470" 
d="M815 1112q252 0 404.5 -149.5t152.5 -397.5q0 -168 -98 -370l-498 -224q-51 0 -132 60.5t-161 152.5v-655l-297 -10v1976l297 10v-534zM1040 166q35 158 35 262q0 352 -268 490h-289q-35 -156 -35 -263q0 -352 269 -489h288z" />
    <glyph glyph-name="ydieresis" unicode="&#xff;" horiz-adv-x="1157" 
d="M600 1358l-258 -166l-211 209l258 164zM1104 1358l-258 -166l-211 209l258 164zM899 1083l234 29l-641 -1583l-234 -29l203 498l-428 1061l297 53l291 -725z" />
    <glyph glyph-name="Amacron" unicode="&#x100;" horiz-adv-x="1474" 
d="M1014 1864l-70 -209h-487l71 209h486zM1104 -29l-152 416h-536l-142 -387l-219 -29l557 1524l246 29l549 -1497zM492 596h382l-190 522z" />
    <glyph glyph-name="amacron" unicode="&#x101;" horiz-adv-x="1214" 
d="M883 1452l-70 -209h-487l71 209h486zM573 1112q483 0 484 -471v-641l-299 -10v121l-332 -140q-156 0 -242 75t-86 226q0 119 54 240l600 203q-35 188 -277 188q-115 0 -291 -90l-37 55l252 244h174zM723 166q35 147 35 262v107h-320q-43 -121 -43 -213q0 -100 62.5 -128
t265.5 -28z" />
    <glyph glyph-name="Abreve" unicode="&#x102;" horiz-adv-x="1474" 
d="M711 1604q-141 0 -219 97t-78 253l176 10q10 -57 53 -115l229 4q12 55 13 101l174 10q0 -127 -53 -240zM1104 -29l-152 416h-536l-142 -387l-219 -29l557 1524l246 29l549 -1497zM492 596h382l-190 522z" />
    <glyph glyph-name="abreve" unicode="&#x103;" horiz-adv-x="1214" 
d="M580 1192q-141 0 -219 97t-78 253l176 10q10 -57 53 -114l229 4q12 55 13 100l174 10q0 -127 -54 -239zM573 1112q483 0 484 -471v-641l-299 -10v121l-332 -140q-156 0 -242 75t-86 226q0 119 54 240l600 203q-35 188 -277 188q-115 0 -291 -90l-37 55l252 244h174z
M723 166q35 147 35 262v107h-320q-43 -121 -43 -213q0 -100 62.5 -128t265.5 -28z" />
    <glyph glyph-name="Aogonek" unicode="&#x104;" horiz-adv-x="1474" 
d="M1393 -322l43 -63l-197 -190q-150 0 -233.5 61t-83.5 170q0 86 54 158.5t189 167.5l-61 -11l-152 416h-536l-142 -387l-219 -29l557 1524l246 29l549 -1497q-123 -104 -175 -173t-52 -124q0 -39 23.5 -61.5t62.5 -22.5q57 -1 127 32zM492 596h382l-190 522z" />
    <glyph glyph-name="aogonek" unicode="&#x105;" horiz-adv-x="1204" 
d="M1073 -322l41 -63l-196 -190q-147 0 -232.5 62t-85.5 169q0 88 58.5 163t201.5 175l-102 -4v121l-332 -140q-156 0 -242 75t-86 226q0 119 54 240l600 203q-35 188 -277 188q-115 0 -291 -90l-37 55l252 244h174q483 0 484 -471v-641q-197 -174 -197 -270
q0 -39 23.5 -61.5t62.5 -22.5q57 -1 127 32zM723 166q35 147 35 262v107h-320q-43 -121 -43 -213q0 -100 62.5 -128t265.5 -28z" />
    <glyph glyph-name="Cacute" unicode="&#x106;" horiz-adv-x="1538" 
d="M952 1608l-229 4l133 364l303 -53zM922 -29q-358 0 -571.5 203t-213.5 543q0 266 133 538l607 269q184 0 338.5 -61.5t248.5 -178.5l-256 -223q-117 150 -288 219h-418q-49 -223 -49 -371q0 -328 140 -499.5t411 -171.5q82 0 155.5 25.5t198.5 86.5l47 -71l-318 -308
h-165z" />
    <glyph glyph-name="cacute" unicode="&#x107;" horiz-adv-x="1169" 
d="M725 1196l-229 4l133 365l303 -54zM653 -29q-252 0 -403.5 149.5t-151.5 397.5q0 168 99 371l532 223q254 0 399 -166l-229 -201q-72 113 -199 173h-268q-35 -156 -35 -263q0 -227 101.5 -351t267.5 -124q111 0 278 90l37 -55l-252 -244h-176z" />
    <glyph glyph-name="Cdotaccent" unicode="&#x10a;" horiz-adv-x="1538" 
d="M827 1604l-211 208l258 164l211 -207zM922 -29q-358 0 -571.5 203t-213.5 543q0 266 133 538l607 269q184 0 338.5 -61.5t248.5 -178.5l-256 -223q-117 150 -288 219h-418q-49 -223 -49 -371q0 -328 140 -499.5t411 -171.5q82 0 155.5 25.5t198.5 86.5l47 -71l-318 -308
h-165z" />
    <glyph glyph-name="cdotaccent" unicode="&#x10b;" horiz-adv-x="1169" 
d="M602 1192l-211 209l258 164l211 -207zM653 -29q-252 0 -403.5 149.5t-151.5 397.5q0 168 99 371l532 223q254 0 399 -166l-229 -201q-72 113 -199 173h-268q-35 -156 -35 -263q0 -227 101.5 -351t267.5 -124q111 0 278 90l37 -55l-252 -244h-176z" />
    <glyph glyph-name="Ccaron" unicode="&#x10c;" horiz-adv-x="1538" 
d="M989 1632l-254 -28l-227 362l246 10l131 -168l129 158l182 10zM1004 238q82 0 155.5 25.5t198.5 86.5l47 -71l-318 -308h-165q-358 0 -571.5 203t-213.5 543q0 266 133 538l607 269q184 0 338.5 -61.5t248.5 -178.5l-256 -223q-117 150 -288 219h-418q-49 -223 -49 -371
q0 -328 140.5 -499.5t410.5 -171.5z" />
    <glyph glyph-name="ccaron" unicode="&#x10d;" horiz-adv-x="1169" 
d="M762 1221l-254 -29l-227 362l245 11l131 -168l129 157l183 11zM766 180q111 0 278 90l37 -55l-252 -244h-176q-252 0 -403.5 149.5t-151.5 397.5q0 168 99 371l532 223q254 0 399 -166l-229 -201q-72 113 -199 173h-268q-35 -156 -35 -263q0 -227 101.5 -351t267.5 -124z
" />
    <glyph glyph-name="Dcaron" unicode="&#x10e;" horiz-adv-x="1714" 
d="M969 1632l-254 -28l-228 362l246 10l131 -168l129 158l183 10zM848 1495q352 0 537.5 -183.5t185.5 -527.5q0 -281 -133 -551l-604 -233h-601v1495h615zM1206 209q49 221 49 383q0 514 -352 694h-362v-1077h665z" />
    <glyph glyph-name="dcaron" unicode="&#x10f;" horiz-adv-x="1470" 
d="M1702 1524l221 -217l-258 -320l-104 37l59 180l-184 148zM987 899v596l299 10v-1505l-299 -10v123l-332 -142q-252 0 -404.5 149.5t-152.5 397.5q0 168 99 371l497 223q51 0 133 -60.5t160 -152.5zM952 166q35 158 35 262q0 352 -268 490h-287q-35 -156 -35 -263
q0 -352 269 -489h286z" />
    <glyph glyph-name="Dcroat" unicode="&#x110;" horiz-adv-x="1714" 
d="M848 1495q352 0 537.5 -183.5t185.5 -527.5q0 -281 -133 -551l-604 -233h-601v635h-192l72 209h120v651h615zM1206 209q49 221 49 383q0 514 -352 694h-362v-442h309l-70 -209h-239v-426h665z" />
    <glyph glyph-name="dcroat" unicode="&#x111;" horiz-adv-x="1470" 
d="M1487 1380l-70 -209h-131v-1171l-299 -10v123l-332 -142q-252 0 -404.5 149.5t-152.5 397.5q0 168 99 371l497 223q51 0 133 -60.5t160 -152.5v272h-309l72 209h237v115l299 10v-125h201zM952 166q35 158 35 262q0 352 -268 490h-287q-35 -156 -35 -263q0 -352 269 -489
h286z" />
    <glyph glyph-name="Emacron" unicode="&#x112;" horiz-adv-x="1333" 
d="M1006 1864l-70 -209h-487l71 209h486zM541 666v-457h688l-72 -209h-924v1495h996l-72 -209h-616v-412h571l-70 -208h-501z" />
    <glyph glyph-name="emacron" unicode="&#x113;" horiz-adv-x="1265" 
d="M944 1452l-70 -209h-487l72 209h485zM1174 616q0 -72 -13 -141h-743q37 -143 128 -219t220 -76q111 0 278 90l37 -55l-252 -244h-176q-252 0 -403.5 149.5t-151.5 397.5q0 168 99 371l532 223q205 0 325 -138.5t120 -357.5zM719 918h-287q-33 -141 -35 -240h471
q-8 96 -41.5 148.5t-107.5 91.5z" />
    <glyph glyph-name="Edotaccent" unicode="&#x116;" horiz-adv-x="1333" 
d="M963 1769l-258 -165l-211 208l258 164zM541 666v-457h688l-72 -209h-924v1495h996l-72 -209h-616v-412h571l-70 -208h-501z" />
    <glyph glyph-name="edotaccent" unicode="&#x117;" horiz-adv-x="1265" 
d="M901 1358l-258 -166l-211 209l258 164zM1174 616q0 -72 -13 -141h-743q37 -143 128 -219t220 -76q111 0 278 90l37 -55l-252 -244h-176q-252 0 -403.5 149.5t-151.5 397.5q0 168 99 371l532 223q205 0 325 -138.5t120 -357.5zM719 918h-287q-33 -141 -35 -240h471
q-8 96 -41.5 148.5t-107.5 91.5z" />
    <glyph glyph-name="Eogonek" unicode="&#x118;" horiz-adv-x="1337" 
d="M1157 0q-197 -174 -196 -270q0 -39 23.5 -61.5t62.5 -22.5q57 0 127 32l43 -63l-197 -190q-150 0 -234 61t-84 170q0 90 59.5 166t209.5 178h-738v1495h996l-72 -209h-616v-412h571l-70 -208h-501v-457h688z" />
    <glyph glyph-name="eogonek" unicode="&#x119;" horiz-adv-x="1265" 
d="M1174 616q0 -72 -13 -141h-743q37 -143 128 -219t220 -76q111 0 278 90l37 -55l-252 -244q-96 -90 -129.5 -141t-33.5 -100q0 -39 23.5 -61.5t62.5 -22.5q53 0 127 32l41 -63l-197 -190q-150 0 -233.5 61t-83.5 170q0 84 51 154.5t178 160.5q-244 6 -390.5 154.5
t-146.5 392.5q0 168 99 371l532 223q205 0 325 -138.5t120 -357.5zM719 918h-287q-33 -141 -35 -240h471q-8 96 -41.5 148.5t-107.5 91.5z" />
    <glyph glyph-name="Ecaron" unicode="&#x11a;" horiz-adv-x="1333" 
d="M864 1632l-254 -28l-227 362l246 10l131 -168l129 158l182 10zM541 666v-457h688l-72 -209h-924v1495h996l-72 -209h-616v-412h571l-70 -208h-501z" />
    <glyph glyph-name="ecaron" unicode="&#x11b;" horiz-adv-x="1265" 
d="M805 1221l-254 -29l-227 362l245 11l131 -168l129 157l183 11zM1174 616q0 -72 -13 -141h-743q37 -143 128 -219t220 -76q111 0 278 90l37 -55l-252 -244h-176q-252 0 -403.5 149.5t-151.5 397.5q0 168 99 371l532 223q205 0 325 -138.5t120 -357.5zM719 918h-287
q-33 -141 -35 -240h471q-8 96 -41.5 148.5t-107.5 91.5z" />
    <glyph glyph-name="Gbreve" unicode="&#x11e;" horiz-adv-x="1687" 
d="M815 1604q-141 0 -219 97t-78 253l176 10q10 -57 54 -115l229 4q12 55 12 101l174 10q0 -127 -53 -240zM1516 821v-850h-11l-258 234l-241 -234h-84q-358 0 -571.5 203t-213.5 543q0 266 133 538l607 269q184 0 338.5 -61.5t248.5 -178.5l-256 -223q-117 150 -288 219
h-418q-49 -223 -49 -371q0 -328 132 -499.5t388 -171.5q104 0 235 57v317h-407l71 209h644z" />
    <glyph glyph-name="gbreve" unicode="&#x11f;" horiz-adv-x="1251" 
d="M616 1192q-141 0 -219 97t-78 253l177 10q10 -57 53 -114l229 4q12 55 13 100l174 10q0 -127 -54 -239zM786 184q209 0 298.5 -53t89.5 -178q0 -123 -52 -229l-647 -224q-154 0 -235.5 34t-176.5 134l226 197q82 -98 174 -154h465q14 37 14 113q0 47 -27.5 68.5
t-91.5 21.5h-405q-285 0 -285 244v32l164 185q-162 106 -162 317q0 106 72 258l387 162q92 0 168 -29h440l-69 -209l-168 25q37 -76 36 -172q0 -102 -71 -258l-387 -162q-111 0 -199 41v-115q0 -27 11.5 -38t39.5 -11h391zM424 918q-18 -82 -18 -146q0 -197 147 -270h158
q20 92 20 145q0 197 -149 271h-158z" />
    <glyph glyph-name="Gdotaccent" unicode="&#x120;" horiz-adv-x="1687" 
d="M1075 1769l-258 -165l-211 208l258 164zM1516 821v-850h-11l-258 234l-241 -234h-84q-358 0 -571.5 203t-213.5 543q0 266 133 538l607 269q184 0 338.5 -61.5t248.5 -178.5l-256 -223q-117 150 -288 219h-418q-49 -223 -49 -371q0 -328 132 -499.5t388 -171.5
q104 0 235 57v317h-407l71 209h644z" />
    <glyph glyph-name="gdotaccent" unicode="&#x121;" horiz-adv-x="1251" 
d="M879 1358l-258 -166l-211 209l258 164zM786 184q209 0 298.5 -53t89.5 -178q0 -123 -52 -229l-647 -224q-154 0 -235.5 34t-176.5 134l226 197q82 -98 174 -154h465q14 37 14 113q0 47 -27.5 68.5t-91.5 21.5h-405q-285 0 -285 244v32l164 185q-162 106 -162 317
q0 106 72 258l387 162q92 0 168 -29h440l-69 -209l-168 25q37 -76 36 -172q0 -102 -71 -258l-387 -162q-111 0 -199 41v-115q0 -27 11.5 -38t39.5 -11h391zM424 918q-18 -82 -18 -146q0 -197 147 -270h158q20 92 20 145q0 197 -149 271h-158z" />
    <glyph glyph-name="uni0122" unicode="&#x122;" horiz-adv-x="1687" 
d="M1516 821v-850h-11l-258 234l-241 -234h-84q-358 0 -571.5 203t-213.5 543q0 266 133 538l607 269q184 0 338.5 -61.5t248.5 -178.5l-256 -223q-117 150 -288 219h-418q-49 -223 -49 -371q0 -328 132 -499.5t388 -171.5q104 0 235 57v317h-407l71 209h644zM653 -289
l269 172l219 -217l-258 -319l-105 37l60 180z" />
    <glyph glyph-name="uni0123" unicode="&#x123;" horiz-adv-x="1251" 
d="M842 1366l-267 -174l-221 217l258 320l105 -37l-60 -179zM786 184q209 0 298.5 -53t89.5 -178q0 -123 -52 -229l-647 -224q-154 0 -235.5 34t-176.5 134l226 197q82 -98 174 -154h465q14 37 14 113q0 47 -27.5 68.5t-91.5 21.5h-405q-285 0 -285 244v32l164 185
q-162 106 -162 317q0 106 72 258l387 162q92 0 168 -29h440l-69 -209l-168 25q37 -76 36 -172q0 -102 -71 -258l-387 -162q-111 0 -199 41v-115q0 -27 11.5 -38t39.5 -11h391zM424 918q-18 -82 -18 -146q0 -197 147 -270h158q20 92 20 145q0 197 -149 271h-158z" />
    <glyph glyph-name="Hbar" unicode="&#x126;" horiz-adv-x="1710" 
d="M1659 1245l-72 -209h-112v-1036l-308 -10v676h-608v-666l-307 -10v1046h-193l72 209h121v250l307 10v-260h608v250l308 10v-260h184zM1167 874v162h-608v-162h608z" />
    <glyph glyph-name="hbar" unicode="&#x127;" horiz-adv-x="1363" 
d="M817 1112q119 0 197 -37t117.5 -114.5t54 -169t14.5 -226.5v-565l-299 -10v454q0 98 -1 150.5t-7 113t-13.5 86t-31 55.5t-45 38t-68.5 18t-92 11.5t-123 1.5q-35 -156 -35 -263v-655l-299 -10v1157h-206l71 209h135v139l299 10v-149h303l-69 -209h-234v-174z" />
    <glyph glyph-name="Imacron" unicode="&#x12a;" horiz-adv-x="774" 
d="M598 1655h-487l71 209h486zM233 1495l308 10v-1505l-308 -10v1505z" />
    <glyph glyph-name="imacron" unicode="&#x12b;" horiz-adv-x="669" 
d="M543 1243h-488l72 209h485zM186 -10v1093l297 11v-1094z" />
    <glyph glyph-name="Iogonek" unicode="&#x12e;" horiz-adv-x="774" 
d="M557 -322l41 -63l-197 -190q-147 0 -232 62t-85 169q0 88 58.5 163t201.5 175l-111 -4v1505l308 10v-1505q-197 -174 -197 -270q0 -39 23.5 -61.5t62.5 -22.5q57 -1 127 32z" />
    <glyph glyph-name="iogonek" unicode="&#x12f;" horiz-adv-x="630" 
d="M555 1358l-258 -166l-209 209l256 164zM360 -354q53 0 127 32l41 -63l-196 -190q-150 0 -234 61t-84 170q0 88 57.5 164t202.5 174l-102 -4v1093l299 11v-1094q-197 -172 -197 -270q0 -39 23.5 -61.5t62.5 -22.5z" />
    <glyph glyph-name="Idotaccent" unicode="&#x130;" horiz-adv-x="774" 
d="M367 1604l-211 208l258 164l211 -207zM233 1495l308 10v-1505l-308 -10v1505z" />
    <glyph glyph-name="dotlessi" unicode="&#x131;" horiz-adv-x="669" 
d="M186 -10v1093l297 11v-1094z" />
    <glyph glyph-name="IJ" unicode="&#x132;" horiz-adv-x="1929" 
d="M233 -10v1505l308 10v-1505zM1411 1495l307 10v-1259l-622 -275q-68 0 -139.5 59.5t-125.5 180.5l256 223q78 -135 156 -219h168v1280z" />
    <glyph glyph-name="ij" unicode="&#x133;" horiz-adv-x="1323" 
d="M311 1192l-211 209l258 164l211 -207zM961 1192l-211 209l258 164l211 -207zM186 -10v1093l297 11v-1094zM803 -500l-55 37q90 168 90 277v1269l297 11v-1250z" />
    <glyph glyph-name="uni0136" unicode="&#x136;" horiz-adv-x="1529" 
d="M815 813l664 -780l-342 -62l-596 699v-670l-308 -10v1505l308 10v-702l600 692l293 29zM555 -289l268 172l219 -217l-258 -319l-104 37l59 180z" />
    <glyph glyph-name="uni0137" unicode="&#x137;" horiz-adv-x="1267" 
d="M764 612l477 -581l-332 -60l-424 514v-485l-299 -10v1505l299 10v-899l443 477l303 29zM420 -289l268 172l219 -217l-258 -319l-104 37l59 180z" />
    <glyph glyph-name="Lacute" unicode="&#x139;" horiz-adv-x="1247" 
d="M694 1923l-207 -315l-229 4l133 364zM541 209h647l-72 -209h-883v1495l308 10v-1296z" />
    <glyph glyph-name="lacute" unicode="&#x13a;" horiz-adv-x="671" 
d="M436 1608l-229 4l133 364l303 -53zM186 -10v1505l299 10v-1505z" />
    <glyph glyph-name="uni013B" unicode="&#x13b;" horiz-adv-x="1247" 
d="M541 209h647l-72 -209h-883v1495l308 10v-1296zM473 -289l268 172l220 -217l-259 -319l-104 37l59 180z" />
    <glyph glyph-name="uni013C" unicode="&#x13c;" horiz-adv-x="671" 
d="M485 1505v-1505l-299 -10v1505zM391 -117l219 -217l-258 -319l-104 37l59 180l-184 147z" />
    <glyph glyph-name="Lcaron" unicode="&#x13d;" horiz-adv-x="1247" 
d="M821 1024l60 180l-185 148l267 172l221 -217l-258 -320zM541 209h647l-72 -209h-883v1495l308 10v-1296z" />
    <glyph glyph-name="lcaron" unicode="&#x13e;" horiz-adv-x="671" 
d="M903 1524l219 -217l-258 -320l-104 37l59 180l-184 148zM186 -10v1505l299 10v-1505z" />
    <glyph glyph-name="Ldot" unicode="&#x13f;" horiz-adv-x="1247" 
d="M541 209h647l-72 -209h-883v1495l308 10v-1296zM1108 725l-240 -172l-202 215l237 174z" />
    <glyph glyph-name="ldot" unicode="&#x140;" horiz-adv-x="671" 
d="M186 -10v1505l299 10v-1505zM856 625l-221 215l268 174l219 -217z" />
    <glyph glyph-name="Lslash" unicode="&#x141;" horiz-adv-x="1208" 
d="M502 209h647l-70 -209h-884v479l-136 -94v246l136 94v770l307 10v-569l309 215v-246l-309 -215v-481z" />
    <glyph glyph-name="lslash" unicode="&#x142;" horiz-adv-x="671" 
d="M676 1169v-245l-191 -131v-793l-299 -10v596l-186 -129v245l186 129v664l299 10v-467z" />
    <glyph glyph-name="Nacute" unicode="&#x143;" horiz-adv-x="1658" 
d="M1137 1923l-207 -315l-230 4l134 364zM1223 1495l202 10v-1505l-219 -16l-770 1042v-1026l-203 -10v1505l220 16l770 -1044v1028z" />
    <glyph glyph-name="nacute" unicode="&#x144;" horiz-adv-x="1361" 
d="M989 1511l-207 -315l-229 4l133 365zM815 1112q119 0 197 -37t117.5 -114.5t54 -169t14.5 -226.5v-565l-297 -10v454q0 98 -1 150.5t-8 113t-14.5 86t-30 55.5t-45 39t-69.5 18t-92 10.5t-123 1.5q-35 -156 -35 -263v-655l-297 -10v1093l297 11v-121z" />
    <glyph glyph-name="uni0145" unicode="&#x145;" horiz-adv-x="1658" 
d="M1223 1495l202 10v-1505l-219 -16l-770 1042v-1026l-203 -10v1505l220 16l770 -1044v1028zM629 -289l268 172l219 -217l-258 -319l-104 37l59 180z" />
    <glyph glyph-name="uni0146" unicode="&#x146;" horiz-adv-x="1361" 
d="M815 1112q119 0 197 -37t117.5 -114.5t54 -169t14.5 -226.5v-565l-297 -10v454q0 98 -1 150.5t-8 113t-14.5 86t-30 55.5t-45 39t-69.5 18t-92 10.5t-123 1.5q-35 -156 -35 -263v-655l-297 -10v1093l297 11v-121zM453 -289l268 172l219 -217l-258 -319l-104 37l59 180z
" />
    <glyph glyph-name="Ncaron" unicode="&#x147;" horiz-adv-x="1658" 
d="M967 1632l-254 -28l-228 362l246 10l131 -168l129 158l183 10zM1223 1495l202 10v-1505l-219 -16l-770 1042v-1026l-203 -10v1505l220 16l770 -1044v1028z" />
    <glyph glyph-name="ncaron" unicode="&#x148;" horiz-adv-x="1361" 
d="M819 1221l-254 -29l-227 362l246 11l131 -168l129 157l182 11zM815 1112q119 0 197 -37t117.5 -114.5t54 -169t14.5 -226.5v-565l-297 -10v454q0 98 -1 150.5t-8 113t-14.5 86t-30 55.5t-45 39t-69.5 18t-92 10.5t-123 1.5q-35 -156 -35 -263v-655l-297 -10v1093l297 11
v-121z" />
    <glyph glyph-name="Eng" unicode="&#x14a;" horiz-adv-x="1658" 
d="M1223 1495l202 10v-1730l-622 -275q-68 0 -138.5 59.5t-123.5 180.5l254 223q80 -137 157 -219h254v238l-770 1044v-1026l-203 -10v1505l220 16l770 -1046v1030z" />
    <glyph glyph-name="eng" unicode="&#x14b;" horiz-adv-x="1361" 
d="M815 1112q119 0 197 -37t117.5 -114.5t54 -169t14.5 -226.5v-721l-332 -344l-55 37q90 168 90 277v630q0 98 -1 150.5t-8 113t-14.5 86t-30 55.5t-45 39t-69.5 18t-92 10.5t-123 1.5q-35 -156 -35 -263v-655l-297 -10v1093l297 11v-121z" />
    <glyph glyph-name="Omacron" unicode="&#x14c;" horiz-adv-x="1798" 
d="M1176 1864l-70 -209h-488l72 209h486zM877 1524q358 0 571 -203t213 -543q0 -266 -133 -538l-606 -269q-358 0 -571.5 203t-213.5 543q0 266 133 538zM1296 215q49 223 50 371q0 506 -408 694h-436q-49 -223 -49 -371q0 -506 407 -694h436z" />
    <glyph glyph-name="omacron" unicode="&#x14d;" horiz-adv-x="1384" 
d="M901 1243h-487l71 209h486zM655 -29q-252 0 -404.5 149.5t-152.5 397.5q0 168 99 371l532 223q252 0 404.5 -149.5t152.5 -397.5q0 -168 -98 -370zM666 166h286q35 156 35 262q0 352 -268 490h-287q-35 -156 -35 -263q1 -352 269 -489z" />
    <glyph glyph-name="Ohungarumlaut" unicode="&#x150;" horiz-adv-x="1798" 
d="M1006 1923l-191 -309l-223 -10l133 372zM1196 1614l-221 -10l131 372l280 -53zM877 1524q358 0 571 -203t213 -543q0 -266 -133 -538l-606 -269q-358 0 -571.5 203t-213.5 543q0 266 133 538zM1296 215q49 223 50 371q0 506 -408 694h-436q-49 -223 -49 -371
q0 -506 407 -694h436z" />
    <glyph glyph-name="ohungarumlaut" unicode="&#x151;" horiz-adv-x="1384" 
d="M608 1202l-223 -10l133 373l281 -54zM989 1202l-221 -10l131 373l281 -54zM655 -29q-252 0 -404.5 149.5t-152.5 397.5q0 168 99 371l532 223q252 0 404.5 -149.5t152.5 -397.5q0 -168 -98 -370zM666 166h286q35 156 35 262q0 352 -268 490h-287q-35 -156 -35 -263
q1 -352 269 -489z" />
    <glyph glyph-name="OE" unicode="&#x152;" horiz-adv-x="2445" 
d="M1653 666v-457h688l-72 -209h-923v160l-424 -189q-358 0 -571.5 203t-213.5 543q0 266 133 538l607 269q276 0 469 -152v123h995l-72 -209h-616v-412h579l-71 -208h-508zM1296 215q49 223 50 371q0 506 -408 694h-436q-49 -223 -49 -371q0 -506 407 -694h436z" />
    <glyph glyph-name="oe" unicode="&#x153;" horiz-adv-x="2154" 
d="M2062 616q0 -72 -12 -141h-743q37 -143 128 -219t220 -76q111 0 278 90l37 -55l-252 -244h-176q-285 0 -438 189l-449 -189q-252 0 -404.5 149.5t-152.5 397.5q0 168 99 371l532 223q285 0 440 -188l449 188q205 0 324.5 -138.5t119.5 -357.5zM952 166q35 156 35 262
q0 352 -268 490h-287q-35 -156 -35 -263q0 -352 269 -489h286zM1608 918h-287q-33 -141 -35 -240h471q-8 96 -41.5 148.5t-107.5 91.5z" />
    <glyph glyph-name="Racute" unicode="&#x154;" horiz-adv-x="1540" 
d="M1034 1923l-207 -315l-229 4l133 364zM1135 -29l-512 598h-82v-569l-308 -10v1505h588q516 0 516 -375q0 -162 -123 -323l-282 -125l547 -639zM541 1286v-508h432q51 119 51 203q0 203 -141 305h-342z" />
    <glyph glyph-name="racute" unicode="&#x155;" horiz-adv-x="1026" 
d="M866 1511l-207 -315l-229 4l133 365zM700 1112q102 0 174 -42t136 -142l-230 -203q-47 68 -100 104h-162q-35 -137 -35 -219v-610l-297 -10v1093l297 11v-199z" />
    <glyph glyph-name="uni0156" unicode="&#x156;" horiz-adv-x="1540" 
d="M932 672l547 -639l-344 -62l-512 598h-82v-569l-308 -10v1505h588q516 0 516 -375q0 -162 -123 -323zM541 1286v-508h432q51 119 51 203q0 203 -141 305h-342zM555 -289l268 172l219 -217l-258 -319l-104 37l59 180z" />
    <glyph glyph-name="uni0157" unicode="&#x157;" horiz-adv-x="1026" 
d="M700 1112q102 0 174 -42t136 -142l-230 -203q-47 68 -100 104h-162q-35 -137 -35 -219v-610l-297 -10v1093l297 11v-199zM145 -289l269 172l219 -217l-258 -319l-105 37l60 180z" />
    <glyph glyph-name="Rcaron" unicode="&#x158;" horiz-adv-x="1540" 
d="M864 1632l-254 -28l-227 362l246 10l131 -168l129 158l182 10zM1135 -29l-512 598h-82v-569l-308 -10v1505h588q516 0 516 -375q0 -162 -123 -323l-282 -125l547 -639zM541 1286v-508h432q51 119 51 203q0 203 -141 305h-342z" />
    <glyph glyph-name="rcaron" unicode="&#x159;" horiz-adv-x="1026" 
d="M696 1221l-254 -29l-227 362l246 11l131 -168l129 157l182 11zM700 1112q102 0 174 -42t136 -142l-230 -203q-47 68 -100 104h-162q-35 -137 -35 -219v-610l-297 -10v1093l297 11v-199z" />
    <glyph glyph-name="Sacute" unicode="&#x15a;" horiz-adv-x="1380" 
d="M780 1608l-229 4l133 364l303 -53zM686 -29q-391 0 -584 240l254 221q109 -141 260 -217h361q31 78 31 156q0 111 -78 159t-291 95q-248 55 -373 143t-125 256q0 123 95 248l456 252q381 0 576 -240l-254 -221q-109 141 -260 217h-351q-31 -61 -30 -137q0 -88 83 -139.5
t308 -98.5q252 -53 362.5 -142t110.5 -271q0 -115 -88 -267z" />
    <glyph glyph-name="sacute" unicode="&#x15b;" horiz-adv-x="1071" 
d="M635 1196l-229 4l133 365l303 -54zM494 -29q-141 0 -239.5 38t-180.5 128l229 197q70 -106 199 -168h233q27 47 27 96q0 57 -56.5 88t-216.5 66q-188 45 -285.5 112.5t-97.5 186.5q0 84 60 174l416 223q262 0 409 -166l-229 -190q-70 102 -199 162h-227q-27 -47 -27 -91
q0 -51 62.5 -79.5t234.5 -67.5q188 -43 273.5 -113.5t85.5 -193.5q0 -100 -56 -178z" />
    <glyph glyph-name="Scedilla" unicode="&#x15e;" horiz-adv-x="1380" 
d="M764 905q252 -53 362.5 -142t110.5 -271q0 -115 -88 -267l-346 -188l-29 -148q131 -2 202 -47t71 -127q0 -96 -74 -170l-297 -120q-78 0 -135.5 29.5t-108.5 99.5l172 149q49 -80 109 -115h61q12 27 12 64q0 72 -54 96.5t-183 24.5l43 202q-319 25 -490 236l254 221
q109 -141 260 -217h361q31 78 31 156q0 111 -78 159t-291 95q-248 55 -373 143t-125 256q0 123 95 248l456 252q381 0 576 -240l-254 -221q-109 141 -260 217h-351q-31 -61 -30 -137q0 -88 83 -139.5t308 -98.5z" />
    <glyph glyph-name="scedilla" unicode="&#x15f;" horiz-adv-x="1071" 
d="M606 680q188 -43 273.5 -113.5t85.5 -193.5q0 -100 -56 -178l-311 -166l-29 -140q133 -2 204 -47t71 -127q0 -96 -74 -170l-297 -120q-78 0 -135 29.5t-109 99.5l172 149q49 -80 109 -115h61q12 27 13 64q0 72 -54.5 96.5t-183.5 24.5l45 204q-190 20 -317 160l229 197
q70 -106 199 -168h233q27 47 27 96q0 57 -56.5 88t-216.5 66q-188 45 -285.5 112.5t-97.5 186.5q0 84 60 174l416 223q262 0 409 -166l-229 -190q-70 102 -199 162h-227q-27 -47 -27 -91q0 -51 62.5 -79.5t234.5 -67.5z" />
    <glyph glyph-name="Scaron" unicode="&#x160;" horiz-adv-x="1380" 
d="M817 1632l-254 -28l-227 362l246 10l131 -168l129 158l182 10zM764 905q252 -53 362.5 -142t110.5 -271q0 -115 -88 -267l-463 -254q-391 0 -584 240l254 221q109 -141 260 -217h361q31 78 31 156q0 111 -78 159t-291 95q-248 55 -373 143t-125 256q0 123 95 248l456 252
q381 0 576 -240l-254 -221q-109 141 -260 217h-351q-31 -61 -30 -137q0 -88 83 -139.5t308 -98.5z" />
    <glyph glyph-name="scaron" unicode="&#x161;" horiz-adv-x="1071" 
d="M672 1221l-254 -29l-228 362l246 11l131 -168l129 157l183 11zM606 680q188 -43 273.5 -113.5t85.5 -193.5q0 -100 -56 -178l-415 -224q-141 0 -239.5 38t-180.5 128l229 197q70 -106 199 -168h233q27 47 27 96q0 57 -56.5 88t-216.5 66q-188 45 -285.5 112.5
t-97.5 186.5q0 84 60 174l416 223q262 0 409 -166l-229 -190q-70 102 -199 162h-227q-27 -47 -27 -91q0 -51 62.5 -79.5t234.5 -67.5z" />
    <glyph glyph-name="uni0162" unicode="&#x162;" horiz-adv-x="1288" 
d="M803 0l-51 -2l-23 -109q131 -2 201.5 -47t70.5 -127q0 -96 -71 -170l-299 -120q-78 0 -134.5 28.5t-109.5 100.5l172 149q49 -82 111 -115h59q14 27 14 64q-2 72 -56 96.5t-183 24.5l47 219l-55 -2v1296h-437l72 209h1106l-72 -209h-362v-1286z" />
    <glyph glyph-name="uni0163" unicode="&#x163;" horiz-adv-x="944" 
d="M555 -111q131 -2 201.5 -47t70.5 -127q0 -96 -71 -170l-299 -120q-78 0 -134.5 28.5t-109.5 100.5l172 149q49 -82 111 -115h59q14 27 14 64q-2 72 -56 96.5t-183 24.5l55 260q-139 92 -139 332v509h-213v5l512 489v-285h319l-71 -209h-248v-518q0 -176 137 -176
q51 0 170 66l37 -58l-225 -217h-43q-33 0 -48 2z" />
    <glyph glyph-name="Tcaron" unicode="&#x164;" horiz-adv-x="1288" 
d="M782 1632l-254 -28l-227 362l246 10l131 -168l129 158l182 10zM1237 1495l-72 -209h-362v-1286l-307 -10v1296h-437l72 209h1106z" />
    <glyph glyph-name="tcaron" unicode="&#x165;" horiz-adv-x="944" 
d="M1081 1524l219 -217l-256 -320l-104 37l57 180l-182 148zM682 180q51 0 170 66l37 -58l-225 -217h-43q-375 0 -375 394v509h-213v5l512 489v-285h319l-71 -209h-248v-518q0 -176 137 -176z" />
    <glyph glyph-name="Tbar" unicode="&#x166;" horiz-adv-x="1288" 
d="M1165 1286h-362v-442h244l-70 -209h-174v-635l-307 -10v645h-258l71 209h187v442h-437l72 209h1106z" />
    <glyph glyph-name="tbar" unicode="&#x167;" horiz-adv-x="944" 
d="M852 246l37 -58l-225 -217h-43q-375 0 -375 394v73h-213l69 209h144v227h-213v5l512 489v-285h319l-71 -209h-248v-227h319l-71 -209h-248v-82q0 -176 137 -176q51 0 170 66z" />
    <glyph glyph-name="Umacron" unicode="&#x16a;" horiz-adv-x="1646" 
d="M1098 1864l-70 -209h-487l71 209h486zM1106 1495l307 10v-1505l-307 -10v170l-424 -189q-246 0 -357.5 123t-111.5 410v991l307 10v-946q0 -82 7.5 -134t32 -93t56 -62.5t99 -35t142.5 -16.5t200 -3q49 213 49 371v909z" />
    <glyph glyph-name="umacron" unicode="&#x16b;" horiz-adv-x="1349" 
d="M952 1452l-69 -209h-488l72 209h485zM864 1083l299 11v-1094l-299 -10v121l-332 -140q-92 0 -157.5 26t-106.5 71t-64.5 116.5t-31.5 149.5t-8 184v565l299 11v-455v-150.5t7 -113t14.5 -86t29 -55t43 -38t66.5 -18.5t88 -11t118 -1q35 156 35 262v655z" />
    <glyph glyph-name="Uring" unicode="&#x16e;" horiz-adv-x="1646" 
d="M838 1604q-111 0 -179.5 55t-68.5 143q0 51 37 140l174 77q113 0 180.5 -54t67.5 -142q0 -57 -35 -140zM770 1876q-4 -33 -4 -43q0 -55 35 -84h69q4 33 4 43q0 53 -34 84h-70zM1106 1495l307 10v-1505l-307 -10v170l-424 -189q-246 0 -357.5 123t-111.5 410v991l307 10
v-946q0 -82 7.5 -134t32 -93t56 -62.5t99 -35t142.5 -16.5t200 -3q49 213 49 371v909z" />
    <glyph glyph-name="uring" unicode="&#x16f;" horiz-adv-x="1349" 
d="M694 1192q-111 0 -179.5 55.5t-68.5 143.5q0 51 37 139l174 78q113 0 180.5 -54.5t67.5 -142.5q0 -57 -35 -139zM627 1464q-4 -33 -4 -43q0 -55 34 -84h70q4 33 4 43q0 53 -35 84h-69zM864 1083l299 11v-1094l-299 -10v121l-332 -140q-92 0 -157.5 26t-106.5 71
t-64.5 116.5t-31.5 149.5t-8 184v565l299 11v-455v-150.5t7 -113t14.5 -86t29 -55t43 -38t66.5 -18.5t88 -11t118 -1q35 156 35 262v655z" />
    <glyph glyph-name="Uhungarumlaut" unicode="&#x170;" horiz-adv-x="1646" 
d="M926 1923l-191 -309l-223 -10l133 372zM1116 1614l-221 -10l131 372l281 -53zM1106 1495l307 10v-1505l-307 -10v170l-424 -189q-246 0 -357.5 123t-111.5 410v991l307 10v-946q0 -82 7.5 -134t32 -93t56 -62.5t99 -35t142.5 -16.5t200 -3q49 213 49 371v909z" />
    <glyph glyph-name="uhungarumlaut" unicode="&#x171;" horiz-adv-x="1349" 
d="M782 1511l-190 -309l-223 -10l133 373zM973 1202l-221 -10l131 373l280 -54zM864 428v655l299 11v-1094l-299 -10v121l-332 -140q-92 0 -157.5 26t-106.5 71t-64.5 116.5t-31.5 149.5t-8 184v565l299 11v-455v-150.5t7 -113t14.5 -86t29 -55t43 -38t66.5 -18.5t88 -11
t118 -1q35 156 35 262z" />
    <glyph glyph-name="Uogonek" unicode="&#x172;" horiz-adv-x="1626" 
d="M1425 -322l41 -63l-196 -190q-150 0 -234 61t-84 170q0 88 57.5 164t202.5 174l-110 -4v170l-424 -189q-242 0 -353.5 123t-111.5 410v991l307 10v-946q0 -82 7.5 -134t32 -93t56 -62.5t98 -35t140.5 -16.5t199 -3q49 213 49 371v909l307 10v-1505q-197 -172 -197 -270
q0 -39 24 -61.5t62 -22.5q53 -1 127 32z" />
    <glyph glyph-name="uogonek" unicode="&#x173;" horiz-adv-x="1341" 
d="M1180 -322l41 -63l-197 -190q-147 0 -232 62t-85 169q0 88 58 163t202 175l-103 -4v121l-332 -140q-92 0 -157.5 26t-106.5 71t-64.5 116.5t-31.5 149.5t-8 184v565l299 11v-455v-150.5t7 -113t14.5 -86t29 -55t43 -38t66.5 -18.5t88 -11t118 -1q35 156 35 262v655
l299 11v-1094q-197 -174 -196 -270q0 -39 23.5 -61.5t62.5 -22.5q57 -1 127 32z" />
    <glyph glyph-name="Wcircumflex" unicode="&#x174;" horiz-adv-x="2338" 
d="M1204 1774l-129 -160l-182 -10l207 344l254 28l227 -362l-246 -10zM2062 1495l217 29l-516 -1524l-247 -29l-353 1104l-364 -1075l-246 -29l-481 1497l301 56l356 -1114l371 1085l237 29l357 -1116z" />
    <glyph glyph-name="wcircumflex" unicode="&#x175;" horiz-adv-x="1861" 
d="M950 1362l-129 -160l-182 -10l207 344l254 29l227 -363l-246 -10zM1604 1083l229 29l-416 -1112l-227 -29l-266 713l-256 -684l-224 -29l-407 1088l297 53l264 -731l254 702l231 29l267 -733z" />
    <glyph glyph-name="Ycircumflex" unicode="&#x176;" horiz-adv-x="1454" 
d="M745 1774l-129 -160l-182 -10l207 344l254 28l227 -362l-245 -10zM1415 1524l-545 -901v-623l-307 -10v590l-512 886l318 58l401 -697l404 668z" />
    <glyph glyph-name="ycircumflex" unicode="&#x177;" horiz-adv-x="1157" 
d="M590 1362l-129 -160l-182 -10l206 344l254 29l228 -363l-246 -10zM899 1083l234 29l-641 -1583l-234 -29l203 498l-428 1061l297 53l291 -725z" />
    <glyph glyph-name="Ydieresis" unicode="&#x178;" horiz-adv-x="1454" 
d="M756 1769l-258 -165l-211 208l258 164zM1260 1769l-259 -165l-210 208l258 164zM1415 1524l-545 -901v-623l-307 -10v590l-512 886l318 58l401 -697l404 668z" />
    <glyph glyph-name="Zacute" unicode="&#x179;" horiz-adv-x="1333" 
d="M1020 1923l-207 -315l-229 4l133 364zM1257 1495v-10l-776 -1198h727l-98 -287h-1038v10l776 1198h-709l97 287h1021z" />
    <glyph glyph-name="zacute" unicode="&#x17a;" horiz-adv-x="1077" 
d="M879 1511l-207 -315l-230 4l133 365zM442 260h566l-88 -260h-871v16l561 807h-508l88 260h814v-16z" />
    <glyph glyph-name="Zdotaccent" unicode="&#x17b;" horiz-adv-x="1333" 
d="M946 1769l-258 -165l-211 208l258 164zM1257 1495v-10l-776 -1198h727l-98 -287h-1038v10l776 1198h-709l97 287h1021z" />
    <glyph glyph-name="zdotaccent" unicode="&#x17c;" horiz-adv-x="1077" 
d="M805 1358l-258 -166l-211 209l258 164zM442 260h566l-88 -260h-871v16l561 807h-508l88 260h814v-16z" />
    <glyph glyph-name="Zcaron" unicode="&#x17d;" horiz-adv-x="1333" 
d="M850 1632l-254 -28l-227 362l245 10l131 -168l129 158l183 10zM1257 1495v-10l-776 -1198h727l-98 -287h-1038v10l776 1198h-709l97 287h1021z" />
    <glyph glyph-name="zcaron" unicode="&#x17e;" horiz-adv-x="1077" 
d="M709 1221l-254 -29l-228 362l246 11l131 -168l129 157l182 11zM442 260h566l-88 -260h-871v16l561 807h-508l88 260h814v-16z" />
    <glyph glyph-name="florin" unicode="&#x192;" horiz-adv-x="1568" 
d="M807 1329q-57 -158 -94 -405l-4 -31h450l-72 -209h-407l-162 -1155l-309 -10l164 1165h-199l70 209h162q49 244 153 407l563 224q94 0 187.5 -44t150.5 -122l-258 -201q-59 115 -174 172h-221z" />
    <glyph glyph-name="uni01CD" unicode="&#x1cd;" horiz-adv-x="1474" 
d="M872 1632l-254 -28l-227 362l246 10l131 -168l129 158l182 10zM1104 -29l-152 416h-536l-142 -387l-219 -29l557 1524l246 29l549 -1497zM492 596h382l-190 522z" />
    <glyph glyph-name="uni01CE" unicode="&#x1ce;" horiz-adv-x="1214" 
d="M743 1221l-254 -29l-227 362l246 11l131 -168l129 157l182 11zM573 1112q483 0 484 -471v-641l-299 -10v121l-332 -140q-156 0 -242 75t-86 226q0 119 54 240l600 203q-35 188 -277 188q-115 0 -291 -90l-37 55l252 244h174zM723 166q35 147 35 262v107h-320
q-43 -121 -43 -213q0 -100 62.5 -128t265.5 -28z" />
    <glyph glyph-name="uni01CF" unicode="&#x1cf;" horiz-adv-x="774" 
d="M526 1632l-254 -28l-227 362l246 10l131 -168l129 158l182 10zM233 -10v1505l308 10v-1505z" />
    <glyph glyph-name="uni01D0" unicode="&#x1d0;" horiz-adv-x="669" 
d="M471 1221l-254 -29l-227 362l246 11l131 -168l129 157l182 11zM186 -10v1093l297 11v-1094z" />
    <glyph glyph-name="uni01D1" unicode="&#x1d1;" horiz-adv-x="1798" 
d="M1036 1632l-254 -28l-227 362l246 10l131 -168l129 158l182 10zM877 1524q358 0 571 -203t213 -543q0 -266 -133 -538l-606 -269q-358 0 -571.5 203t-213.5 543q0 266 133 538zM1296 215q49 223 50 371q0 506 -408 694h-436q-49 -223 -49 -371q0 -506 407 -694h436z" />
    <glyph glyph-name="uni01D2" unicode="&#x1d2;" horiz-adv-x="1384" 
d="M829 1221l-254 -29l-227 362l246 11l131 -168l129 157l182 11zM729 1112q252 0 404.5 -149.5t152.5 -397.5q0 -168 -98 -370l-533 -224q-252 0 -404.5 149.5t-152.5 397.5q0 168 99 371zM952 166q35 156 35 262q0 352 -268 490h-287q-35 -156 -35 -263q0 -352 269 -489
h286z" />
    <glyph glyph-name="uni01D3" unicode="&#x1d3;" horiz-adv-x="1646" 
d="M956 1632l-254 -28l-227 362l246 10l131 -168l129 158l182 10zM1106 1495l307 10v-1505l-307 -10v170l-424 -189q-246 0 -357.5 123t-111.5 410v991l307 10v-946q0 -82 7.5 -134t32 -93t56 -62.5t99 -35t142.5 -16.5t200 -3q49 213 49 371v909z" />
    <glyph glyph-name="uni01D4" unicode="&#x1d4;" horiz-adv-x="1349" 
d="M813 1221l-254 -29l-227 362l246 11l131 -168l129 157l182 11zM864 1083l299 11v-1094l-299 -10v121l-332 -140q-92 0 -157.5 26t-106.5 71t-64.5 116.5t-31.5 149.5t-8 184v565l299 11v-455v-150.5t7 -113t14.5 -86t29 -55t43 -38t66.5 -18.5t88 -11t118 -1
q35 156 35 262v655z" />
    <glyph glyph-name="uni01D5" unicode="&#x1d5;" horiz-adv-x="1646" 
d="M1098 2294l-70 -209h-487l71 209h486zM803 1769l-258 -165l-211 208l258 164zM838 1812l258 164l211 -207l-258 -165zM1106 1495l307 10v-1505l-307 -10v170l-424 -189q-246 0 -357.5 123t-111.5 410v991l307 10v-946q0 -82 7.5 -134t32 -93t56 -62.5t99 -35t142.5 -16.5
t200 -3q49 213 49 371v909z" />
    <glyph glyph-name="uni01D6" unicode="&#x1d6;" horiz-adv-x="1349" 
d="M952 1882l-69 -209h-488l72 209h485zM657 1358l-258 -166l-211 209l258 164zM692 1401l258 164l211 -207l-258 -166zM864 1083l299 11v-1094l-299 -10v121l-332 -140q-92 0 -157.5 26t-106.5 71t-64.5 116.5t-31.5 149.5t-8 184v565l299 11v-455v-150.5t7 -113t14.5 -86
t29 -55t43 -38t66.5 -18.5t88 -11t118 -1q35 156 35 262v655z" />
    <glyph glyph-name="uni01D7" unicode="&#x1d7;" horiz-adv-x="1646" 
d="M1126 2353l-206 -315l-230 4l133 364zM803 1769l-258 -165l-211 208l258 164zM838 1812l258 164l211 -207l-258 -165zM1106 1495l307 10v-1505l-307 -10v170l-424 -189q-246 0 -357.5 123t-111.5 410v991l307 10v-946q0 -82 7.5 -134t32 -93t56 -62.5t99 -35t142.5 -16.5
t200 -3q49 213 49 371v909z" />
    <glyph glyph-name="uni01D8" unicode="&#x1d8;" horiz-adv-x="1349" 
d="M983 1942l-207 -316l-229 4l133 365zM657 1358l-258 -166l-211 209l258 164zM692 1401l258 164l211 -207l-258 -166zM864 1083l299 11v-1094l-299 -10v121l-332 -140q-92 0 -157.5 26t-106.5 71t-64.5 116.5t-31.5 149.5t-8 184v565l299 11v-455v-150.5t7 -113t14.5 -86
t29 -55t43 -38t66.5 -18.5t88 -11t118 -1q35 156 35 262v655z" />
    <glyph glyph-name="uni01D9" unicode="&#x1d9;" horiz-adv-x="1646" 
d="M956 2062l-254 -28l-227 362l246 10l131 -168l129 158l182 10zM803 1769l-258 -165l-211 208l258 164zM838 1812l258 164l211 -207l-258 -165zM1106 1495l307 10v-1505l-307 -10v170l-424 -189q-246 0 -357.5 123t-111.5 410v991l307 10v-946q0 -82 7.5 -134t32 -93
t56 -62.5t99 -35t142.5 -16.5t200 -3q49 213 49 371v909z" />
    <glyph glyph-name="uni01DA" unicode="&#x1da;" horiz-adv-x="1349" 
d="M813 1651l-254 -29l-227 363l246 10l131 -168l129 158l182 10zM657 1358l-258 -166l-211 209l258 164zM692 1401l258 164l211 -207l-258 -166zM864 1083l299 11v-1094l-299 -10v121l-332 -140q-92 0 -157.5 26t-106.5 71t-64.5 116.5t-31.5 149.5t-8 184v565l299 11v-455
v-150.5t7 -113t14.5 -86t29 -55t43 -38t66.5 -18.5t88 -11t118 -1q35 156 35 262v655z" />
    <glyph glyph-name="uni01DB" unicode="&#x1db;" horiz-adv-x="1646" 
d="M948 2042l-229 -4l-207 315l305 53zM803 1769l-258 -165l-211 208l258 164zM1049 1604l-211 208l258 164l211 -207zM1106 1495l307 10v-1505l-307 -10v170l-424 -189q-246 0 -357.5 123t-111.5 410v991l307 10v-946q0 -82 7.5 -134t32 -93t56 -62.5t99 -35t142.5 -16.5
t200 -3q49 213 49 371v909z" />
    <glyph glyph-name="uni01DC" unicode="&#x1dc;" horiz-adv-x="1349" 
d="M805 1630l-230 -4l-206 316l305 53zM657 1358l-258 -166l-211 209l258 164zM903 1192l-211 209l258 164l211 -207zM864 1083l299 11v-1094l-299 -10v121l-332 -140q-92 0 -157.5 26t-106.5 71t-64.5 116.5t-31.5 149.5t-8 184v565l299 11v-455v-150.5t7 -113t14.5 -86
t29 -55t43 -38t66.5 -18.5t88 -11t118 -1q35 156 35 262v655z" />
    <glyph glyph-name="uni0218" unicode="&#x218;" horiz-adv-x="1380" 
d="M764 905q252 -53 362.5 -142t110.5 -271q0 -115 -88 -267l-463 -254q-391 0 -584 240l254 221q109 -141 260 -217h361q31 78 31 156q0 111 -78 159t-291 95q-248 55 -373 143t-125 256q0 123 95 248l456 252q381 0 576 -240l-254 -221q-109 141 -260 217h-351
q-31 -61 -30 -137q0 -88 83 -139.5t308 -98.5zM475 -289l268 172l220 -217l-258 -319l-105 37l59 180z" />
    <glyph glyph-name="uni0219" unicode="&#x219;" horiz-adv-x="1071" 
d="M606 680q188 -43 273.5 -113.5t85.5 -193.5q0 -100 -56 -178l-415 -224q-141 0 -239.5 38t-180.5 128l229 197q70 -106 199 -168h233q27 47 27 96q0 57 -56.5 88t-216.5 66q-188 45 -285.5 112.5t-97.5 186.5q0 84 60 174l416 223q262 0 409 -166l-229 -190
q-70 102 -199 162h-227q-27 -47 -27 -91q0 -51 62.5 -79.5t234.5 -67.5zM319 -289l269 172l219 -217l-258 -319l-105 37l60 180z" />
    <glyph glyph-name="uni021A" unicode="&#x21a;" horiz-adv-x="1288" 
d="M1237 1495l-72 -209h-362v-1286l-307 -10v1296h-437l72 209h1106zM449 -289l268 172l219 -217l-258 -319l-105 37l60 180z" />
    <glyph glyph-name="uni021B" unicode="&#x21b;" horiz-adv-x="944" 
d="M621 -29q-375 0 -375 394v509h-213v5l512 489v-285h319l-71 -209h-248v-518q0 -176 137 -176q51 0 170 66l37 -58l-225 -217h-43zM313 -289l269 172l219 -217l-258 -319l-105 37l60 180z" />
    <glyph glyph-name="uni0237" unicode="&#x237;" horiz-adv-x="673" 
d="M154 -500l-56 37q90 168 90 277v1269l297 11v-1250z" />
    <glyph glyph-name="circumflex" unicode="&#x2c6;" horiz-adv-x="1019" 
d="M854 1202l-246 -10l-131 170l-129 -160l-182 -10l207 344l254 29z" />
    <glyph glyph-name="caron" unicode="&#x2c7;" horiz-adv-x="1019" 
d="M672 1554l182 11l-207 -344l-254 -29l-227 362l246 11l131 -168z" />
    <glyph glyph-name="uni02C9" unicode="&#x2c9;" horiz-adv-x="862" 
d="M639 1280h-473l72 209h473z" />
    <glyph glyph-name="breve" unicode="&#x2d8;" horiz-adv-x="976" 
d="M463 1192q-141 0 -219 97t-78 253l176 10q10 -57 53 -114l230 4q12 55 12 100l174 10q0 -127 -53 -239z" />
    <glyph glyph-name="dotaccent" unicode="&#x2d9;" horiz-adv-x="800" 
d="M377 1192l-211 209l258 164l211 -207z" />
    <glyph glyph-name="ring" unicode="&#x2da;" horiz-adv-x="792" 
d="M414 1192q-111 0 -179.5 55.5t-68.5 143.5q0 51 37 139l174 78q113 0 180.5 -54.5t67.5 -142.5q0 -57 -35 -139zM377 1337h69q4 33 5 43q0 53 -35 84h-70q-4 -33 -4 -43q0 -55 35 -84z" />
    <glyph glyph-name="ogonek" unicode="&#x2db;" horiz-adv-x="847" 
d="M483 -575q-147 0 -232 62t-85 169q0 88 59.5 165t210.5 179l215 25q-123 -106 -174 -173t-51 -122q0 -39 23.5 -61.5t62.5 -22.5q57 0 127 32l41 -63z" />
    <glyph glyph-name="tilde" unicode="&#x2dc;" horiz-adv-x="1005" 
d="M623 1192q-78 0 -129.5 32.5t-106.5 106.5h-33q-12 -63 -12 -121l-176 -10q0 154 67 287l150 63q78 0 129 -33.5t106 -107.5h33q12 66 13 121l176 10q0 -156 -68 -285z" />
    <glyph glyph-name="hungarumlaut" unicode="&#x2dd;" horiz-adv-x="1128" 
d="M389 1202l-223 -10l133 373l281 -54zM770 1202l-221 -10l131 373l281 -54z" />
    <glyph glyph-name="gravecomb" unicode="&#x300;" 
d="M-397 1196l-207 315l305 54l131 -365z" />
    <glyph glyph-name="acutecomb" unicode="&#x301;" 
d="M-375 1196l-229 4l133 365l303 -54z" />
    <glyph glyph-name="uni0302" unicode="&#x302;" 
d="M-166 1202l-246 -10l-131 170l-129 -160l-182 -10l207 344l254 29z" />
    <glyph glyph-name="tildecomb" unicode="&#x303;" 
d="M-383 1192q-78 0 -129 32.5t-106 106.5h-33q-12 -63 -13 -121l-176 -10q0 154 68 287l149 63q78 0 129.5 -33.5t106.5 -107.5h33q12 66 12 121l176 10q0 -156 -67 -285z" />
    <glyph glyph-name="uni0304" unicode="&#x304;" 
d="M-238 1243h-487l72 209h485z" />
    <glyph glyph-name="uni0306" unicode="&#x306;" 
d="M-514 1192q-141 0 -219 97t-78 253l176 10q10 -57 53 -114l230 4q12 55 12 100l174 10q0 -127 -53 -239z" />
    <glyph glyph-name="uni0307" unicode="&#x307;" 
d="M-424 1192l-211 209l258 164l211 -207z" />
    <glyph glyph-name="uni0308" unicode="&#x308;" 
d="M-928 1192l-211 209l258 164l211 -207zM-424 1192l-211 209l258 164l211 -207z" />
    <glyph glyph-name="uni030A" unicode="&#x30a;" 
d="M-379 1192q-111 0 -179.5 55.5t-68.5 143.5q0 51 37 139l174 78q113 0 180.5 -54.5t67.5 -142.5q0 -57 -35 -139zM-416 1337h70q4 33 4 43q0 53 -35 84h-69q-4 -33 -5 -43q0 -55 35 -84z" />
    <glyph glyph-name="uni030B" unicode="&#x30b;" 
d="M-739 1202l-224 -10l134 373l280 -54zM-358 1202l-222 -10l131 373l281 -54z" />
    <glyph glyph-name="uni030C" unicode="&#x30c;" 
d="M-348 1554l182 11l-207 -344l-254 -29l-227 362l246 11l131 -168z" />
    <glyph glyph-name="uni0312" unicode="&#x312;" 
d="M-350 1513l184 -147l-266 -174l-221 217l258 320l104 -37z" />
    <glyph glyph-name="uni0326" unicode="&#x326;" 
d="M-385 -117l219 -217l-258 -319l-104 37l59 180l-184 147z" />
    <glyph glyph-name="uni0327" unicode="&#x327;" 
d="M-440 -111q131 -2 201.5 -47t70.5 -127q0 -96 -72 -170l-299 -120q-78 0 -134 28.5t-109 100.5l172 149q49 -82 110 -115h60q14 27 14 64q-2 72 -56.5 96.5t-183.5 24.5l50 227l202 14z" />
    <glyph glyph-name="uni0328" unicode="&#x328;" 
d="M-365 -575q-147 0 -232 62t-85 169q0 88 59.5 165t210.5 179l215 25q-123 -106 -174 -173t-51 -122q0 -39 23.5 -61.5t62.5 -22.5q57 0 127 32l41 -63z" />
    <glyph glyph-name="uni0335" unicode="&#x335;" 
d="M-223 489h-740l72 209h737z" />
    <glyph glyph-name="uni0336" unicode="&#x336;" 
d="M-215 506h-961l64 192h960z" />
    <glyph glyph-name="uni0337" unicode="&#x337;" 
d="M-166 440l-676 -467v246l676 467v-246z" />
    <glyph glyph-name="uni0338" unicode="&#x338;" 
d="M-166 1253l-1489 -1280v269l1489 1280v-269z" />
    <glyph glyph-name="uni0394" unicode="&#x394;" horiz-adv-x="1490" 
d="M848 1505l582 -1505h-1369l578 1495zM748 1208l-388 -999h773z" />
    <glyph glyph-name="uni0394" unicode="&#x3b4;" horiz-adv-x="1490" 
d="M848 1505l582 -1505h-1369l578 1495zM748 1208l-388 -999h773z" />
    <glyph glyph-name="uni03A9" unicode="&#x3a9;" horiz-adv-x="1701" 
d="M1554 821q0 -438 -407 -612h373l-72 -209h-506v283q190 63 294.5 204.5t104.5 333.5q0 217 -139 358.5t-352 141.5t-353.5 -141.5t-140.5 -358.5q0 -193 104.5 -334t297.5 -204v-283h-580l72 209h303q-408 174 -408 612q0 293 206 498t499 205t498.5 -205t205.5 -498z
" />
    <glyph glyph-name="uni03A9" unicode="&#x3c9;" horiz-adv-x="1701" 
d="M1554 821q0 -438 -407 -612h373l-72 -209h-506v283q190 63 294.5 204.5t104.5 333.5q0 217 -139 358.5t-352 141.5t-353.5 -141.5t-140.5 -358.5q0 -193 104.5 -334t297.5 -204v-283h-580l72 209h303q-408 174 -408 612q0 293 206 498t499 205t498.5 -205t205.5 -498z
" />
    <glyph glyph-name="uni03BC" unicode="&#x3bc;" horiz-adv-x="1370" 
d="M887 1083l299 11v-1094l-299 -10v121l-332 -140q-27 0 -72 4v-446l-297 -10v1564l297 11v-455q0 -98 1 -150.5t7.5 -113t13.5 -86t29.5 -55t44 -39t66.5 -18.5t88 -10t119 -1q35 156 35 262v655z" />
    <glyph glyph-name="pi" unicode="&#x3c0;" horiz-adv-x="1456" 
d="M1436 1083l-72 -209h-182v-874l-297 -10v884h-303v-874l-299 -10v884h-252l69 209h1336z" />
    <glyph glyph-name="Wgrave" unicode="&#x1e80;" horiz-adv-x="2338" 
d="M1360 1612l-230 -4l-206 315l305 53zM2062 1495l217 29l-516 -1524l-247 -29l-353 1104l-364 -1075l-246 -29l-481 1497l301 56l356 -1114l371 1085l237 29l357 -1116z" />
    <glyph glyph-name="wgrave" unicode="&#x1e81;" horiz-adv-x="1861" 
d="M1106 1200l-229 -4l-207 315l305 54zM1604 1083l229 29l-416 -1112l-227 -29l-266 713l-256 -684l-224 -29l-407 1088l297 53l264 -731l254 702l231 29l267 -733z" />
    <glyph glyph-name="Wacute" unicode="&#x1e82;" horiz-adv-x="2338" 
d="M1538 1923l-207 -315l-229 4l133 364zM2062 1495l217 29l-516 -1524l-247 -29l-353 1104l-364 -1075l-246 -29l-481 1497l301 56l356 -1114l371 1085l237 29l357 -1116z" />
    <glyph glyph-name="wacute" unicode="&#x1e83;" horiz-adv-x="1861" 
d="M1284 1511l-207 -315l-229 4l133 365zM1604 1083l229 29l-416 -1112l-227 -29l-266 713l-256 -684l-224 -29l-407 1088l297 53l264 -731l254 702l231 29l267 -733z" />
    <glyph glyph-name="Wdieresis" unicode="&#x1e84;" horiz-adv-x="2338" 
d="M1212 1769l-258 -165l-211 208l258 164zM1716 1769l-258 -165l-211 208l258 164zM2062 1495l217 29l-516 -1524l-247 -29l-353 1104l-364 -1075l-246 -29l-481 1497l301 56l356 -1114l371 1085l237 29l357 -1116z" />
    <glyph glyph-name="wdieresis" unicode="&#x1e85;" horiz-adv-x="1861" 
d="M958 1358l-258 -166l-211 209l259 164zM1462 1358l-258 -166l-211 209l258 164zM1604 1083l229 29l-416 -1112l-227 -29l-266 713l-256 -684l-224 -29l-407 1088l297 53l264 -731l254 702l231 29l267 -733z" />
    <glyph glyph-name="uni1E9E" unicode="&#x1e9e;" horiz-adv-x="1626" 
d="M1206 862q186 -41 252 -105.5t66 -244.5q0 -117 -80 -287l-463 -254q-223 0 -418 240l256 221q113 -145 217 -217h226q31 72 30 158q0 106 -45 144t-180 67q-137 31 -205.5 83t-68.5 156q0 66 39.5 130.5t173.5 217.5q-72 63 -183 109h-282q-45 -205 -45 -371v-909
l-308 -10v727q0 279 121 538l606 269q104 0 233.5 -63.5t219.5 -176.5l-205 -237q-90 -100 -90 -123q0 -18 24.5 -30t108.5 -32z" />
    <glyph glyph-name="Ygrave" unicode="&#x1ef2;" horiz-adv-x="1454" 
d="M901 1612l-229 -4l-207 315l305 53zM1415 1524l-545 -901v-623l-307 -10v590l-512 886l318 58l401 -697l404 668z" />
    <glyph glyph-name="ygrave" unicode="&#x1ef3;" horiz-adv-x="1157" 
d="M745 1200l-229 -4l-207 315l305 54zM899 1083l234 29l-641 -1583l-234 -29l203 498l-428 1061l297 53l291 -725z" />
    <glyph glyph-name="uni2009" unicode="&#x2009;" horiz-adv-x="1228" 
 />
    <glyph glyph-name="endash" unicode="&#x2013;" horiz-adv-x="1214" 
d="M1061 743l-70 -208h-839l71 208h838z" />
    <glyph glyph-name="emdash" unicode="&#x2014;" horiz-adv-x="1540" 
d="M1386 743l-69 -208h-1165l71 208h1163z" />
    <glyph glyph-name="quoteleft" unicode="&#x2018;" horiz-adv-x="819" 
d="M463 1178l190 -189l-266 -172l-221 217l258 490l104 -37z" />
    <glyph glyph-name="quoteright" unicode="&#x2019;" horiz-adv-x="819" 
d="M434 1524l219 -217l-258 -490l-104 37l65 311l-190 187z" />
    <glyph glyph-name="quotesinglbase" unicode="&#x201a;" horiz-adv-x="819" 
d="M434 360l219 -217l-258 -489l-104 37l65 311l-190 186z" />
    <glyph glyph-name="quotedblleft" unicode="&#x201c;" horiz-adv-x="1361" 
d="M528 1487l-65 -309l190 -189l-266 -172l-221 217l258 490zM1006 1176l190 -187l-268 -172l-219 217l258 490l104 -37z" />
    <glyph glyph-name="quotedblright" unicode="&#x201d;" horiz-adv-x="1361" 
d="M166 1352l268 172l219 -217l-258 -490l-104 37l65 311zM975 1524l221 -217l-258 -490l-104 37l65 309l-190 189z" />
    <glyph glyph-name="quotedblbase" unicode="&#x201e;" horiz-adv-x="1361" 
d="M166 188l268 172l219 -217l-258 -489l-104 37l65 311zM975 360l221 -217l-258 -489l-104 37l65 309l-190 188z" />
    <glyph glyph-name="dagger" unicode="&#x2020;" horiz-adv-x="1239" 
d="M1135 1083l-70 -209h-340v-1185l-213 -11v1196h-410l72 209h338v514l213 11v-525h410z" />
    <glyph glyph-name="daggerdbl" unicode="&#x2021;" horiz-adv-x="1239" 
d="M725 874v-333h410l-70 -209h-340v-643l-213 -11v654h-410l72 209h338v333h-410l72 209h338v514l213 11v-525h410l-70 -209h-340z" />
    <glyph glyph-name="bullet" unicode="&#x2022;" horiz-adv-x="907" 
d="M454.5 412q-118.5 0 -203.5 84t-85 202q0 121 85 205t203.5 84t202.5 -85t84 -203.5t-84 -202.5t-202.5 -84z" />
    <glyph glyph-name="ellipsis" unicode="&#x2026;" horiz-adv-x="2070" 
d="M387 -29l-221 217l268 172l219 -217zM1012 -29l-219 217l266 172l219 -217zM1636 -29l-219 217l266 172l222 -217z" />
    <glyph glyph-name="perthousand" unicode="&#x2030;" horiz-adv-x="3270" 
d="M541 698q-172 0 -286 108.5t-114 272.5q0 131 88 287l359 158q172 0 285.5 -109.5t113.5 -273.5q0 -129 -88 -285zM625 -10l813 1505l233 10l-813 -1505zM545 893h182q20 100 21 145q0 102 -39 170t-127 119h-181q-20 -96 -20 -145q0 -102 38 -171t126 -118zM1708 -29
q-172 0 -285.5 108.5t-113.5 274.5q0 129 88 285l358 158q172 0 285.5 -108.5t113.5 -272.5q0 -131 -88 -287zM2685 -29q-174 0 -286.5 108.5t-112.5 274.5q0 133 88 285l356 158q174 0 286.5 -108.5t112.5 -272.5q0 -135 -88 -287zM1714 168h180q20 96 21 145
q0 102 -38 171t-126 118h-182q-20 -100 -21 -145q0 -102 39 -170t127 -119zM2689 168h182q20 96 21 145q0 195 -166 289h-182q-20 -100 -21 -145q0 -102 39 -170t127 -119z" />
    <glyph glyph-name="guilsinglleft" unicode="&#x2039;" horiz-adv-x="843" 
d="M676 1106v-254l-275 -199l275 -200v-254l-510 376v152z" />
    <glyph glyph-name="guilsinglright" unicode="&#x203a;" horiz-adv-x="843" 
d="M166 1106l510 -379v-152l-510 -376v254l276 200l-276 199v254z" />
    <glyph glyph-name="fraction" unicode="&#x2044;" horiz-adv-x="563" 
d="M-246 -10l813 1505l242 10l-813 -1505z" />
    <glyph glyph-name="Euro" unicode="&#x20ac;" horiz-adv-x="1648" 
d="M1108 238q76 0 150.5 23.5t203.5 88.5l47 -71l-317 -308h-164q-268 0 -438 121t-230 354h-301l72 209h201q-2 20 -2 62q0 49 2 76h-273l72 208h238q37 137 94 254l606 269q137 0 278.5 -66.5t227.5 -173.5l-256 -223q-111 145 -289 219h-336q-37 -160 -45 -279h500
l-72 -208h-430q2 -72 12 -138h490l-72 -209h-360q98 -208 391 -208z" />
    <glyph glyph-name="uni20BA" unicode="&#x20ba;" horiz-adv-x="1572" 
d="M1417 635q6 -37 6 -76q0 -162 -127 -326l-530 -233h-434v545l-273 -76l80 233l193 56v155l-273 -75l80 233l193 55v369l307 10v-293l436 123l-80 -237l-356 -99v-155l434 123l-78 -238l-356 -98v-422h420q49 113 49 211q0 129 -51 215h360z" />
    <glyph glyph-name="uni20BD" unicode="&#x20bd;" horiz-adv-x="1546" 
d="M637 555v-137h502l-72 -209h-430v-209l-307 -10v219h-271l72 209h199v137h-271l72 209h199v731h602q518 0 518 -381q0 -166 -127 -326l-532 -233h-154zM993 1286h-356v-522h448q49 113 50 209q-1 211 -142 313z" />
    <glyph glyph-name="uni2116" unicode="&#x2116;" horiz-adv-x="3004" 
d="M2310 1524q252 0 404.5 -149.5t152.5 -397.5q0 -168 -98 -371l-533 -223q-252 0 -404.5 149.5t-152.5 397.5q0 168 99 370zM1223 467v1028l202 10v-1505l-219 -16l-770 1042v-1026l-203 -10v1505l220 16zM2533 578q35 156 35 262q0 352 -268 489h-287q-35 -156 -35 -262
q0 -352 269 -489h286zM1755 0l72 209h921l-69 -209h-924z" />
    <glyph glyph-name="uni2117" unicode="&#x2117;" horiz-adv-x="1871" 
d="M936 1524q346 0 572.5 -220.5t226.5 -556t-226.5 -556t-572.5 -220.5t-572.5 220.5t-226.5 556t226.5 556t572.5 220.5zM936 111q285 0 462 178t177 461q0 281 -177 457.5t-462 176.5t-462 -177t-177 -457q0 -283 177 -461t462 -178zM1004 1098q258 0 258 -189
q0 -86 -64 -164l-266 -116h-60v-279l-182 -4v752h314zM1053 737q25 51 24 101q0 100 -65 151h-140v-252h181z" />
    <glyph glyph-name="trademark" unicode="&#x2122;" horiz-adv-x="2060" 
d="M1804 748l-184 -15l-37 520l-174 -505l-203 -15l-182 516l-35 -501l-133 -15l53 762l219 14l203 -583l199 569l223 14zM772 1495l-47 -139h-170v-608l-188 -5v613h-230l47 139h588z" />
    <glyph glyph-name="Omega" unicode="&#x2126;" horiz-adv-x="1701" 
d="M1554 821q0 -438 -407 -612h373l-72 -209h-506v283q190 63 294.5 204.5t104.5 333.5q0 217 -139 358.5t-352 141.5t-353.5 -141.5t-140.5 -358.5q0 -193 104.5 -334t297.5 -204v-283h-580l72 209h303q-408 174 -408 612q0 293 206 498t499 205t498.5 -205t205.5 -498z
" />
    <glyph glyph-name="uni2150" unicode="&#x2150;" horiz-adv-x="1951" 
d="M449 465l-246 -10v858l-185 -19l68 201l363 29v-1059zM1167 1495l242 10l-813 -1505l-242 -10zM1321 1030h641v-6l-438 -1024l-164 -10l336 792h-461z" />
    <glyph glyph-name="uni2151" unicode="&#x2151;" horiz-adv-x="2111" 
d="M449 465l-246 -10v858l-185 -19l68 201l363 29v-1059zM1167 1495l242 10l-813 -1505l-242 -10zM1647 1059q182 0 277 -91t95 -298q0 -238 -82 -523l-323 -176q-246 0 -377 150l211 182q76 -100 186 -147h125q16 113 19 348l-183 -113h-108q-119 0 -192.5 68.5
t-73.5 187.5q0 111 102 236zM1737 575q29 61 28 146q0 104 -63 153h-199q-27 -61 -26 -147q0 -102 61 -152h199z" />
    <glyph glyph-name="onethird" unicode="&#x2153;" horiz-adv-x="2039" 
d="M449 465l-246 -10v858l-185 -19l68 201l363 29v-1059zM1167 1495l242 10l-813 -1505l-242 -10zM1743 621q109 -8 172 -67.5t63 -158.5q0 -121 -100 -248l-324 -176q-250 0 -380 150l208 182q74 -98 187 -147h127q29 57 28 143q0 88 -63 139h-297l63 185h218q12 45 12 98
q0 51 -37 84t-102 33q-88 0 -252 -82l-41 63l248 240h124q143 0 228.5 -59.5t85.5 -182.5q0 -47 -33 -125z" />
    <glyph glyph-name="twothirds" unicode="&#x2154;" horiz-adv-x="2267" 
d="M760 713l-84 -248h-678v6q311 381 389 498.5t78 201.5q0 59 -42 95.5t-110 36.5q-61 0 -109 -16.5t-130 -65.5l-41 63l248 240h98q86 0 158.5 -24.5t128 -89t55.5 -161.5q0 -106 -77 -217.5t-296 -318.5h412zM1395 1495l241 10l-813 -1505l-241 -10zM1970 621
q109 -8 172.5 -67.5t63.5 -158.5q0 -121 -101 -248l-323 -176q-250 0 -381 150l209 182q74 -98 186 -147h127q29 57 29 143q0 88 -64 139h-297l64 185h217q12 45 12 98q0 51 -37 84t-102 33q-88 0 -252 -82l-41 63l248 240h125q143 0 228 -59.5t85 -182.5q0 -47 -33 -125z
" />
    <glyph glyph-name="uni2155" unicode="&#x2155;" horiz-adv-x="2045" 
d="M449 465l-246 -10v858l-185 -19l68 201l363 29v-1059zM1167 1495l242 10l-813 -1505l-242 -10zM1686 635q141 0 216.5 -60.5t75.5 -166.5q0 -59 -28.5 -133t-71.5 -128l-324 -176q-250 0 -380 150l208 182q76 -100 187 -147h127q29 57 28 143q0 100 -63 150h-318l-40 36
l81 545h578l-84 -248h-371l-30 -196l112 49h97z" />
    <glyph glyph-name="uni2156" unicode="&#x2156;" horiz-adv-x="2273" 
d="M760 713l-84 -248h-678v6q311 381 389 498.5t78 201.5q0 59 -42 95.5t-110 36.5q-61 0 -109 -16.5t-130 -65.5l-41 63l248 240h98q86 0 158.5 -24.5t128 -89t55.5 -161.5q0 -106 -77 -217.5t-296 -318.5h412zM1395 1495l241 10l-813 -1505l-241 -10zM1913 635
q141 0 217 -60.5t76 -166.5q0 -59 -29 -133t-72 -128l-323 -176q-250 0 -381 150l209 182q76 -100 186 -147h127q29 57 29 143q0 100 -64 150h-317l-41 36l82 545h577l-84 -248h-370l-31 -196l113 49h96z" />
    <glyph glyph-name="uni2157" unicode="&#x2157;" horiz-adv-x="2324" 
d="M815 860q0 -121 -100 -248l-324 -176q-250 0 -381 150l209 182q74 -98 187 -147h126q29 57 29 143q0 88 -63 139h-297l63 184h217q12 47 12.5 98.5t-36.5 84.5t-103 33q-88 0 -252 -82l-41 63l248 240h125q143 0 228.5 -59.5t85.5 -182.5q0 -47 -33 -125l-135 -72
q109 -8 172 -67.5t63 -157.5zM1446 1495l242 10l-814 -1505l-241 -10zM1964 635q141 0 217 -60.5t76 -166.5q0 -59 -28.5 -133t-71.5 -128l-324 -176q-250 0 -381 150l209 182q76 -100 186 -147h127q29 57 29 143q0 100 -64 150h-317l-41 36l82 545h578l-84 -248h-371
l-31 -196l113 49h96z" />
    <glyph glyph-name="uni2158" unicode="&#x2158;" horiz-adv-x="2377" 
d="M729 465l-246 -10v235h-440l-43 86l483 719l246 29v-647h180l-63 -187h-117v-225zM1499 1495l242 10l-813 -1505l-242 -10zM252 877h231v356zM2017 635q141 0 217 -60.5t76 -166.5q0 -59 -28.5 -133t-71.5 -128l-324 -176q-250 0 -381 150l209 182q76 -100 187 -147h127
q29 57 28 143q0 100 -63 150h-318l-41 36l82 545h578l-84 -248h-371l-31 -196l113 49h96z" />
    <glyph glyph-name="uni2159" unicode="&#x2159;" horiz-adv-x="2109" 
d="M449 465l-246 -10v858l-185 -19l68 201l363 29v-1059zM1167 1495l242 10l-813 -1505l-242 -10zM1786 639q119 0 192.5 -68.5t73.5 -187.5q0 -111 -102 -236l-324 -176q-182 0 -277.5 91.5t-95.5 297.5q0 238 82 523l324 176q246 0 377 -150l-211 -182q-76 100 -187 147
h-125q-16 -113 -18 -348l182 113h109zM1769 156q27 61 27 147q0 102 -61 152h-199q-29 -61 -29 -146q0 -104 64 -153h198z" />
    <glyph glyph-name="uni215A" unicode="&#x215a;" horiz-adv-x="2392" 
d="M1450 1495l242 10l-813 -1505l-242 -10zM815 872q0 -59 -28.5 -132.5t-71.5 -127.5l-324 -176q-250 0 -381 150l209 182q76 -100 187 -147h126q29 57 29 143q0 100 -63 149h-318l-41 37l82 545h578l-84 -248h-371l-31 -196l113 49h96q141 0 217 -61t76 -167zM2068 639
q119 0 193 -68.5t74 -187.5q0 -111 -103 -236l-323 -176q-182 0 -277.5 91.5t-95.5 297.5q0 238 82 523l324 176q246 0 376 -150l-211 -182q-76 100 -186 147h-125q-16 -113 -18 -348l182 113h108zM2052 156q27 61 27 147q0 102 -62 152h-198q-29 -61 -29 -146
q0 -104 63 -153h199z" />
    <glyph glyph-name="oneeighth" unicode="&#x215b;" horiz-adv-x="2123" 
d="M449 465l-246 -10v858l-185 -19l68 201l363 29v-1059zM1167 1495l242 10l-813 -1505l-242 -10zM1872 584q170 -57 170 -213q0 -102 -100 -224l-324 -176q-170 0 -272.5 61.5t-102.5 178.5t86 219l92 39q-164 59 -164 205q0 90 97 213l313 172q172 0 267.5 -59.5
t95.5 -170.5q0 -117 -80 -213zM1538 872q-25 -45 -25 -124q0 -84 56 -130h178q27 53 27 127q0 84 -58 127h-178zM1759 156q29 53 29 137q0 90 -64 139h-198q-27 -74 -27 -135q0 -92 62 -141h198z" />
    <glyph glyph-name="threeeighths" unicode="&#x215c;" horiz-adv-x="2402" 
d="M815 860q0 -121 -100 -248l-324 -176q-250 0 -381 150l209 182q74 -98 187 -147h126q29 57 29 143q0 88 -63 139h-297l63 184h217q12 47 12.5 98.5t-36.5 84.5t-103 33q-88 0 -252 -82l-41 63l248 240h125q143 0 228.5 -59.5t85.5 -182.5q0 -47 -33 -125l-135 -72
q109 -8 172 -67.5t63 -157.5zM1446 1495l242 10l-814 -1505l-241 -10zM2150 584q170 -57 170 -213q0 -102 -100 -224l-324 -176q-170 0 -272 61.5t-102 178.5t86 219l92 39q-164 59 -164 205q0 90 96 213l314 172q172 0 267 -59.5t95 -170.5q0 -117 -80 -213zM1817 872
q-25 -45 -25 -124q0 -84 55 -130h178q27 53 27 127q0 84 -57 127h-178zM2038 156q29 53 28 137q0 90 -63 139h-199q-27 -74 -26 -135q0 -92 61 -141h199z" />
    <glyph glyph-name="fiveeighths" unicode="&#x215d;" horiz-adv-x="2406" 
d="M1450 1495l242 10l-813 -1505l-242 -10zM815 872q0 -59 -28.5 -132.5t-71.5 -127.5l-324 -176q-250 0 -381 150l209 182q76 -100 187 -147h126q29 57 29 143q0 100 -63 149h-318l-41 37l82 545h578l-84 -248h-371l-31 -196l113 49h96q141 0 217 -61t76 -167zM2154 584
q170 -57 170 -213q0 -102 -100 -224l-323 -176q-170 0 -272.5 61.5t-102.5 178.5t86 219l92 39q-164 59 -164 205q0 90 96 213l314 172q172 0 267 -59.5t95 -170.5q0 -117 -80 -213zM1821 872q-25 -45 -25 -124q0 -84 55 -130h179q27 53 26 127q0 84 -57 127h-178zM2042 156
q29 53 29 137q0 90 -64 139h-199q-27 -74 -26 -135q0 -92 61 -141h199z" />
    <glyph glyph-name="seveneighths" unicode="&#x215e;" horiz-adv-x="2086" 
d="M1130 1495l242 10l-813 -1505l-242 -10zM737 1495v-6l-438 -1024l-164 -10l336 792h-461l86 248h641zM1835 584q170 -57 170 -213q0 -102 -100 -224l-324 -176q-170 0 -272.5 61.5t-102.5 178.5t86 219l92 39q-164 59 -163 205q0 90 96 213l313 172q172 0 267.5 -59.5
t95.5 -170.5q0 -117 -80 -213zM1501 872q-25 -45 -24 -124q0 -84 55 -130h178q27 53 27 127q0 84 -58 127h-178zM1722 156q29 53 29 137q0 90 -63 139h-199q-27 -74 -27 -135q0 -92 62 -141h198z" />
    <glyph glyph-name="partialdiff" unicode="&#x2202;" horiz-adv-x="1226" 
d="M569 1524q311 -145 435 -307t124 -424q0 -344 -171 -583t-416 -239q-205 0 -324 125t-119 344q0 250 148.5 422t363.5 172q88 0 168 -22l137 -160q-14 170 -124.5 281.5t-389.5 242.5zM541 174q143 0 247.5 149.5t124.5 376.5q-100 131 -292 131q-135 0 -223.5 -110.5
t-88.5 -280.5q0 -127 60.5 -196.5t171.5 -69.5z" />
    <glyph glyph-name="emptyset" unicode="&#x2205;" horiz-adv-x="1441" 
d="M1343 1112v-246l-92 -67q57 -119 58 -256q0 -246 -167 -409t-421 -163q-244 0 -410 154l-213 -154v246l95 68q-59 115 -60 258q0 244 167 406.5t421 162.5q246 0 409 -154zM344 543q0 -70 23 -133l591 426q-100 74 -237 73q-166 0 -271.5 -103t-105.5 -263zM1098 543
q0 68 -23 131l-592 -426q100 -74 238 -74q166 0 271.5 104.5t105.5 264.5z" />
    <glyph glyph-name="Delta" unicode="&#x2206;" horiz-adv-x="1490" 
d="M848 1505l582 -1505h-1369l578 1495zM748 1208l-388 -999h773z" />
    <glyph glyph-name="product" unicode="&#x220f;" horiz-adv-x="1648" 
d="M1550 1495l-71 -209h-203v-1597l-213 -11v1608h-475v-1597l-213 -11v1608h-275l70 209h1380z" />
    <glyph glyph-name="summation" unicode="&#x2211;" horiz-adv-x="1349" 
d="M436 -102h768l-69 -209h-1008l92 270l502 637l-588 745l53 154h994l-72 -209h-668l545 -690z" />
    <glyph glyph-name="minus" unicode="&#x2212;" horiz-adv-x="1214" 
d="M1061 743l-70 -208h-839l71 208h838z" />
    <glyph glyph-name="uni2215" unicode="&#x2215;" horiz-adv-x="860" 
d="M127 -322l393 1919l213 11l-393 -1919z" />
    <glyph glyph-name="uni2219" unicode="&#x2219;" horiz-adv-x="907" 
d="M454.5 412q-118.5 0 -203.5 84t-85 202q0 121 85 205t203.5 84t202.5 -85t84 -203.5t-84 -202.5t-202.5 -84z" />
    <glyph glyph-name="radical" unicode="&#x221a;" horiz-adv-x="1718" 
d="M1624 1495l-70 -209h-383l-471 -1554h-2l-215 -11l-360 1199l215 10l254 -842l426 1407h606z" />
    <glyph glyph-name="infinity" unicode="&#x221e;" horiz-adv-x="1835" 
d="M1266 1112q176 0 288.5 -103.5t112.5 -265.5q0 -164 -111.5 -267t-289.5 -103h-68l-280 239l-281 -239h-70q-178 0 -289.5 103.5t-111.5 266.5q0 162 112.5 265.5t288.5 103.5h70l281 -240l280 240h68zM567 575l197 168l-197 166q-88 0 -140 -43t-52 -123q0 -82 52 -125
t140 -43zM1266 575q88 0 141 43.5t53 124.5q0 80 -53 123t-141 43l-195 -166z" />
    <glyph glyph-name="integral" unicode="&#x222b;" horiz-adv-x="1714" 
d="M1413 1524q86 0 140.5 -52.5t54.5 -130t-54.5 -130t-140.5 -52.5q-84 0 -137 48t-57 122h-74q-57 -160 -94 -405l-62 -455q-45 -315 -172 -514l-516 -223q-86 0 -140.5 52t-54.5 130t54.5 130t140.5 52q84 0 137.5 -48t57.5 -122h73q55 141 95 406l61 454q47 319 172 514
z" />
    <glyph glyph-name="approxequal" unicode="&#x2248;" horiz-adv-x="1216" 
d="M799 676q-70 0 -148 45t-207 160h-59q-20 -72 -20 -183l-213 -10q0 176 69 328l195 80q70 0 147.5 -45t208.5 -160h59q20 82 21 182l211 10q0 -174 -68 -327zM799 225q-70 0 -148 46t-207 161h-59q-20 -74 -20 -184l-213 -10q0 178 69 329l195 80q70 0 147.5 -45
t208.5 -162h59q20 84 21 185l211 10q0 -176 -68 -330z" />
    <glyph glyph-name="notequal" unicode="&#x2260;" horiz-adv-x="1214" 
d="M752 717l-68 -156h377l-70 -209h-395l-82 -190l-225 -10l86 200h-223l71 209h240l67 156h-378l71 209h395l82 190l226 10l-86 -200h221l-70 -209h-239z" />
    <glyph glyph-name="lessequal" unicode="&#x2264;" horiz-adv-x="1251" 
d="M1083 1130v-202l-522 -140l522 -137v-200l-909 239l51 213zM174 150l72 208h837l-69 -208h-840z" />
    <glyph glyph-name="greaterequal" unicode="&#x2265;" horiz-adv-x="1251" 
d="M1077 891l-51 -215l-860 -225v200l522 140l-522 137v202zM166 150l72 208h837l-69 -208h-840z" />
    <glyph glyph-name="lozenge" unicode="&#x25ca;" horiz-adv-x="1300" 
d="M676 1495l510 -747l-510 -748h-53l-510 748l510 747h53zM649 1165l-284 -417l284 -418l287 418z" />
    <glyph glyph-name="Iacute_J.locl" horiz-adv-x="1929" 
d="M260 1612l133 364l303 -53l-207 -315zM1874 1923l-207 -315l-229 4l133 364zM233 -10v1505l308 10v-1505zM1411 215v1280l307 10v-1259l-622 -275q-68 0 -139.5 59.5t-125.5 180.5l256 223q78 -135 156 -219h168z" />
    <glyph glyph-name="IJ.aalt" horiz-adv-x="1544" 
d="M233 1495l308 10v-1505l-308 -10v1505zM1321 1505v-1116q0 -168 -98 -371l-308 -47q98 203 99 371v1153z" />
    <glyph glyph-name="Iacute_J.locl.salt" horiz-adv-x="1544" 
d="M489 1608l-229 4l133 364l303 -53zM1266 1608l-230 4l133 364l304 -53zM233 1495l308 10v-1505l-308 -10v1505zM1321 1505v-1116q0 -168 -98 -371l-308 -47q98 203 99 371v1153z" />
    <glyph glyph-name="J.aalt" horiz-adv-x="770" 
d="M547 1505v-1116q0 -168 -98 -371l-308 -47q98 203 99 371v1153z" />
    <glyph glyph-name="Eng.aalt" horiz-adv-x="1658" 
d="M1223 1495l202 10v-1587q0 -168 -98 -371l-219 -47q98 203 98 371v113l-770 1042v-1026l-203 -10v1505l220 16l770 -1044v1028z" />
    <glyph glyph-name="iacute_j.locl" horiz-adv-x="1323" 
d="M434 1196l-229 4l133 365l303 -54zM1083 1196l-229 4l133 365l303 -54zM186 -10v1093l297 11v-1094zM803 -500l-55 37q90 168 90 277v1269l297 11v-1250z" />
    <glyph glyph-name="a.salt" horiz-adv-x="1470" 
d="M987 1083l299 11v-1094l-299 -10v123l-332 -142q-252 0 -404.5 149.5t-152.5 397.5q0 168 99 371l497 223q51 0 133 -60.5t160 -152.5v184zM952 166q35 158 35 262q0 352 -268 490h-287q-35 -156 -35 -263q0 -352 269 -489h286z" />
    <glyph glyph-name="aacute.aalt" horiz-adv-x="1470" 
d="M1038 1511l-207 -315l-229 4l133 365zM987 1083l299 11v-1094l-299 -10v123l-332 -142q-252 0 -404.5 149.5t-152.5 397.5q0 168 99 371l497 223q51 0 133 -60.5t160 -152.5v184zM952 166q35 158 35 262q0 352 -268 490h-287q-35 -156 -35 -263q0 -352 269 -489h286z" />
    <glyph glyph-name="abreve.aalt" horiz-adv-x="1470" 
d="M705 1192q-141 0 -219 97t-78 253l176 10q10 -57 53 -114l229 4q12 55 13 100l174 10q0 -127 -54 -239zM987 1083l299 11v-1094l-299 -10v123l-332 -142q-252 0 -404.5 149.5t-152.5 397.5q0 168 99 371l497 223q51 0 133 -60.5t160 -152.5v184zM952 166q35 158 35 262
q0 352 -268 490h-287q-35 -156 -35 -263q0 -352 269 -489h286z" />
    <glyph glyph-name="uni01CE.aalt" horiz-adv-x="1470" 
d="M868 1221l-254 -29l-227 362l246 11l131 -168l129 157l182 11zM987 1083l299 11v-1094l-299 -10v123l-332 -142q-252 0 -404.5 149.5t-152.5 397.5q0 168 99 371l497 223q51 0 133 -60.5t160 -152.5v184zM952 166q35 158 35 262q0 352 -268 490h-287q-35 -156 -35 -263
q0 -352 269 -489h286z" />
    <glyph glyph-name="acircumflex.aalt" horiz-adv-x="1470" 
d="M705 1362l-130 -160l-182 -10l207 344l254 29l227 -363l-245 -10zM987 1083l299 11v-1094l-299 -10v123l-332 -142q-252 0 -404.5 149.5t-152.5 397.5q0 168 99 371l497 223q51 0 133 -60.5t160 -152.5v184zM952 166q35 158 35 262q0 352 -268 490h-287
q-35 -156 -35 -263q0 -352 269 -489h286z" />
    <glyph glyph-name="adieresis.aalt" horiz-adv-x="1470" 
d="M715 1358l-258 -166l-211 209l258 164zM1219 1358l-258 -166l-211 209l258 164zM987 1083l299 11v-1094l-299 -10v123l-332 -142q-252 0 -404.5 149.5t-152.5 397.5q0 168 99 371l497 223q51 0 133 -60.5t160 -152.5v184zM952 166q35 158 35 262q0 352 -268 490h-287
q-35 -156 -35 -263q0 -352 269 -489h286z" />
    <glyph glyph-name="agrave.aalt" horiz-adv-x="1470" 
d="M860 1200l-229 -4l-207 315l305 54zM987 1083l299 11v-1094l-299 -10v123l-332 -142q-252 0 -404.5 149.5t-152.5 397.5q0 168 99 371l497 223q51 0 133 -60.5t160 -152.5v184zM952 166q35 158 35 262q0 352 -268 490h-287q-35 -156 -35 -263q0 -352 269 -489h286z" />
    <glyph glyph-name="amacron.aalt" horiz-adv-x="1470" 
d="M1010 1452l-70 -209h-487l71 209h486zM987 1083l299 11v-1094l-299 -10v123l-332 -142q-252 0 -404.5 149.5t-152.5 397.5q0 168 99 371l497 223q51 0 133 -60.5t160 -152.5v184zM952 166q35 158 35 262q0 352 -268 490h-287q-35 -156 -35 -263q0 -352 269 -489h286z" />
    <glyph glyph-name="aogonek.aalt" horiz-adv-x="1431" 
d="M1303 -322l40 -63l-196 -190q-150 0 -234 61t-84 170q0 88 57.5 164t203.5 174l-103 -4v123l-332 -142q-252 0 -404.5 149.5t-152.5 397.5q0 168 99 371l497 223q51 0 133 -60.5t160 -152.5v184l299 11v-1094q-197 -172 -196 -270q0 -39 23.5 -61.5t62.5 -22.5
q53 -1 127 32zM952 166q35 158 35 262q0 352 -268 490h-287q-35 -156 -35 -263q0 -352 269 -489h286z" />
    <glyph glyph-name="aring.aalt" horiz-adv-x="1470" 
d="M750 1192q-111 0 -179.5 55.5t-68.5 143.5q0 51 37 139l174 78q113 0 180.5 -54.5t67.5 -142.5q0 -57 -35 -139zM682 1464q-4 -33 -4 -43q0 -55 35 -84h69q4 33 4 43q0 53 -34 84h-70zM987 1083l299 11v-1094l-299 -10v123l-332 -142q-252 0 -404.5 149.5t-152.5 397.5
q0 168 99 371l497 223q51 0 133 -60.5t160 -152.5v184zM952 166q35 158 35 262q0 352 -268 490h-287q-35 -156 -35 -263q0 -352 269 -489h286z" />
    <glyph glyph-name="atilde.aalt" horiz-adv-x="1470" 
d="M584 1331q-12 -63 -13 -121l-176 -10q0 154 68 287l149 63q78 0 129.5 -33.5t106.5 -107.5h33q12 66 12 121l176 10q0 -156 -68 -285l-149 -63q-78 0 -129 32.5t-107 106.5h-32zM987 1083l299 11v-1094l-299 -10v123l-332 -142q-252 0 -404.5 149.5t-152.5 397.5
q0 168 99 371l497 223q51 0 133 -60.5t160 -152.5v184zM952 166q35 158 35 262q0 352 -268 490h-287q-35 -156 -35 -263q0 -352 269 -489h286z" />
    <glyph glyph-name="ae.aalt" horiz-adv-x="2154" 
d="M2062 616q0 -72 -12 -141h-743q37 -143 128 -219t220 -76q111 0 278 90l37 -55l-252 -244h-176q-221 0 -368 119l-11 -90l-176 -10v123l-332 -142q-252 0 -404.5 149.5t-152.5 397.5q0 168 99 371l497 223q51 0 133 -60.5t160 -152.5v184l299 11l-14 -127l346 145
q205 0 324.5 -138.5t119.5 -357.5zM952 166q35 158 35 262q0 352 -268 490h-287q-35 -156 -35 -263q0 -352 269 -489h286zM1608 918h-287q-33 -141 -35 -240h471q-8 96 -41.5 148.5t-107.5 91.5z" />
    <glyph glyph-name="f.aalt" horiz-adv-x="819" 
d="M870 1083l-69 -209h-250v-874l-297 -10v884h-215v5l215 204v23q0 168 98 371l297 47q-98 -203 -98 -371v-70h319z" />
    <glyph glyph-name="g.aalt" horiz-adv-x="1470" 
d="M987 1083l299 11v-832q0 -279 -176 -538l-532 -224q-254 0 -400 166l230 201q72 -113 198 -172h268q111 176 113 418l-332 -142q-252 0 -404.5 149.5t-152.5 397.5q0 168 99 371l497 223q51 0 133 -60.5t160 -152.5v184zM666 166h286q35 158 35 262q0 352 -268 490h-287
q-35 -156 -35 -263q1 -352 269 -489z" />
    <glyph glyph-name="gbreve.aalt" horiz-adv-x="1470" 
d="M702 1192q-141 0 -218.5 97t-77.5 253l176 10q10 -57 53 -114l229 4q12 55 13 100l174 10q0 -127 -54 -239zM987 1083l299 11v-832q0 -279 -176 -538l-532 -224q-254 0 -400 166l230 201q72 -113 198 -172h268q111 176 113 418l-332 -142q-252 0 -404.5 149.5
t-152.5 397.5q0 168 99 371l497 223q51 0 133 -60.5t160 -152.5v184zM666 166h286q35 158 35 262q0 352 -268 490h-287q-35 -156 -35 -263q1 -352 269 -489z" />
    <glyph glyph-name="uni0123.aalt" horiz-adv-x="1470" 
d="M928 1366l-266 -174l-222 217l258 320l105 -37l-60 -179zM987 1083l299 11v-832q0 -279 -176 -538l-532 -224q-254 0 -400 166l230 201q72 -113 198 -172h268q111 176 113 418l-332 -142q-252 0 -404.5 149.5t-152.5 397.5q0 168 99 371l497 223q51 0 133 -60.5
t160 -152.5v184zM666 166h286q35 158 35 262q0 352 -268 490h-287q-35 -156 -35 -263q1 -352 269 -489z" />
    <glyph glyph-name="gdotaccent.aalt" horiz-adv-x="1470" 
d="M963 1358l-258 -166l-211 209l258 164zM987 1083l299 11v-832q0 -279 -176 -538l-532 -224q-254 0 -400 166l230 201q72 -113 198 -172h268q111 176 113 418l-332 -142q-252 0 -404.5 149.5t-152.5 397.5q0 168 99 371l497 223q51 0 133 -60.5t160 -152.5v184zM666 166
h286q35 158 35 262q0 352 -268 490h-287q-35 -156 -35 -263q1 -352 269 -489z" />
    <glyph glyph-name="iacute_j.locl.salt" horiz-adv-x="1320" 
d="M434 1196l-229 4l133 365l303 -54zM1083 1196l-229 4l133 365l303 -54zM186 -10v1093l297 11v-1094zM1133 1094v-1176q0 -168 -99 -371l-297 -47q98 203 99 371v1212z" />
    <glyph glyph-name="ij.aalt" horiz-adv-x="1320" 
d="M311 1192l-211 209l258 164l211 -207zM961 1192l-211 209l258 164l211 -207zM186 -10v1093l297 11v-1094zM1133 1094v-1176q0 -168 -99 -371l-297 -47q98 203 99 371v1212z" />
    <glyph glyph-name="j.salt" horiz-adv-x="671" 
d="M311 1192l-211 209l258 164l211 -207zM483 1094v-1176q0 -168 -98 -371l-297 -47q98 203 98 371v1212z" />
    <glyph glyph-name="uni0237.aalt" horiz-adv-x="671" 
d="M483 1094v-1176q0 -168 -98 -371l-297 -47q98 203 98 371v1212z" />
    <glyph glyph-name="eng.aalt" horiz-adv-x="1361" 
d="M815 1112q119 0 197 -37t117.5 -114.5t54 -169t14.5 -226.5v-647q0 -168 -98 -371l-297 -47q98 203 98 371v573q0 98 -1 150.5t-8 113t-14.5 86t-30 55.5t-45 39t-69.5 18t-92 10.5t-123 1.5q-35 -156 -35 -263v-655l-297 -10v1093l297 11v-121z" />
    <glyph glyph-name="t.aalt" horiz-adv-x="894" 
d="M793 874h-248v-485q0 -168 98 -371l-299 -47q-98 203 -98 371v532h-213v5l512 489v-285h319z" />
    <glyph glyph-name="tbar.aalt" horiz-adv-x="894" 
d="M545 874v-227h319l-71 -209h-248v-49q0 -168 98 -371l-299 -47q-98 203 -98 371v96h-213l69 209h144v227h-213v5l512 489v-285h319l-71 -209h-248z" />
    <glyph glyph-name="tcaron.aalt" horiz-adv-x="894" 
d="M1081 1524l219 -217l-256 -320l-104 37l57 180l-182 148zM545 1368v-285h319l-71 -209h-248v-485q0 -168 98 -371l-299 -47q-98 203 -98 371v532h-213v5z" />
    <glyph glyph-name="uni0163.salt" horiz-adv-x="894" 
d="M793 874h-248v-485q0 -168 98 -371l-100 -16l-25 -113q131 -2 203 -47t72 -127q0 -96 -74 -170l-297 -120q-80 0 -136.5 28.5t-107.5 100.5l170 149q49 -82 111 -115h61q12 27 12 64q0 72 -54 96.5t-183 24.5l45 209q-94 195 -94 360v532h-213v5l512 489v-285h319z" />
    <glyph glyph-name="uni021B.aalt" horiz-adv-x="894" 
d="M545 1083h319l-71 -209h-248v-485q0 -168 98 -371l-299 -47q-98 203 -98 371v532h-213v5l512 489v-285zM258 -289l268 172l219 -217l-258 -319l-104 37l59 180z" />
    <glyph glyph-name="zero.inferior" horiz-adv-x="1095" 
d="M590 -295q-238 0 -379 141.5t-141 380.5q0 203 100 385l336 181q240 0 381 -141.5t141 -381.5q0 -199 -100 -385zM582 -111h159q31 182 31 246q0 340 -254 471h-164q-31 -188 -30 -244q0 -344 258 -473z" />
    <glyph glyph-name="one.inferior" horiz-adv-x="600" 
d="M86 764l363 29v-1059l-246 -10v858l-185 -19z" />
    <glyph glyph-name="two.inferior" horiz-adv-x="827" 
d="M348 -18h412l-84 -248h-678v6q311 381 389 498.5t78 201.5q0 59 -42 95t-110 36q-61 0 -109 -16t-130 -66l-41 64l248 240h98q86 0 158.5 -25t128 -89.5t55.5 -160.5q0 -106 -77 -217.5t-296 -318.5z" />
    <glyph glyph-name="three.inferior" horiz-adv-x="878" 
d="M580 354q109 -8 172 -67.5t63 -157.5q0 -121 -100 -248l-324 -176q-250 0 -381 150l209 182q74 -98 187 -148h126q29 57 29 144q0 88 -63 139h-297l63 184h217q12 45 13 99q0 51 -37 83.5t-103 32.5q-88 0 -252 -82l-41 64l248 240h125q143 0 228.5 -59.5t85.5 -182.5
q0 -47 -33 -125z" />
    <glyph glyph-name="four.inferior" horiz-adv-x="931" 
d="M909 145l-63 -186h-117v-225l-246 -10v235h-440l-43 86l483 719l246 29v-648h180zM252 145h231v357z" />
    <glyph glyph-name="five.inferior" horiz-adv-x="882" 
d="M522 369q141 0 217 -60.5t76 -167.5q0 -59 -28.5 -133t-71.5 -127l-324 -176q-250 0 -381 150l209 182q76 -100 187 -148h126q29 57 29 144q0 100 -63 149h-318l-41 37l82 545h578l-84 -248h-371l-31 -197l113 50h96z" />
    <glyph glyph-name="six.inferior" horiz-adv-x="946" 
d="M623 373q119 0 192.5 -68.5t73.5 -187.5q0 -111 -103 -236l-323 -176q-182 0 -277.5 91t-95.5 298q0 238 82 522l324 177q246 0 376 -150l-210 -182q-76 100 -187 147h-125q-16 -113 -18 -348l182 113h109zM606 -111q27 61 27 148q0 102 -62 151h-198q-29 -61 -29 -145
q0 -104 64 -154h198z" />
    <glyph glyph-name="seven.inferior" horiz-adv-x="727" 
d="M96 764h641v-6l-438 -1024l-164 -10l336 792h-461z" />
    <glyph glyph-name="eight.inferior" horiz-adv-x="960" 
d="M455 -295q-170 0 -272.5 61.5t-102.5 178t86 219.5l92 39q-164 59 -164 205q0 90 96 213l314 172q172 0 267 -59.5t95 -170.5q0 -117 -80 -213l-77 -33q170 -57 170 -213q0 -102 -101 -223zM406 352h178q27 53 26 127q0 84 -57 127h-178q-25 -45 -25 -125q1 -84 56 -129z
M397 -111h199q29 53 29 138q0 90 -64 139h-199q-27 -74 -26 -135q0 -93 61 -142z" />
    <glyph glyph-name="nine.inferior" horiz-adv-x="948" 
d="M483 793q182 0 277.5 -91.5t95.5 -298.5q0 -238 -82 -522l-323 -176q-246 0 -377 150l211 182q76 -100 186 -148h125q16 113 18 349l-182 -113h-108q-119 0 -193 68.5t-74 187.5q0 111 103 235zM573 309q29 61 29 146q0 104 -63 153h-199q-27 -61 -27 -147
q0 -102 62 -152h198z" />
    <glyph glyph-name="zero.dnom" horiz-adv-x="1095" 
d="M590 -29q-238 0 -379 141.5t-141 381.5q0 203 100 385l336 180q240 0 381 -141.5t141 -380.5q0 -199 -100 -385zM582 156h159q31 182 31 245q0 340 -254 471h-164q-31 -188 -30 -243q0 -344 258 -473z" />
    <glyph glyph-name="one.dnom" horiz-adv-x="600" 
d="M86 1030l363 29v-1059l-246 -10v858l-185 -19z" />
    <glyph glyph-name="two.dnom" horiz-adv-x="827" 
d="M348 248h412l-84 -248h-678v6q311 381 389 499t78 202q0 59 -42 95t-110 36q-61 0 -109 -16.5t-130 -65.5l-41 63l248 240h98q86 0 158.5 -24.5t128 -89t55.5 -161.5q0 -106 -77 -217.5t-296 -318.5z" />
    <glyph glyph-name="three.dnom" horiz-adv-x="878" 
d="M580 621q109 -8 172 -67.5t63 -158.5q0 -121 -100 -248l-324 -176q-250 0 -381 150l209 182q74 -98 187 -147h126q29 57 29 143q0 88 -63 139h-297l63 185h217q12 47 12.5 98t-36.5 84t-103 33q-88 0 -252 -82l-41 63l248 240h125q143 0 228.5 -59.5t85.5 -182.5
q0 -47 -33 -125z" />
    <glyph glyph-name="four.dnom" horiz-adv-x="931" 
d="M909 412l-63 -187h-117v-225l-246 -10v235h-440l-43 86l483 719l246 29v-647h180zM252 412h231v356z" />
    <glyph glyph-name="five.dnom" horiz-adv-x="882" 
d="M522 635q141 0 217 -60.5t76 -166.5q0 -59 -28.5 -133t-71.5 -128l-324 -176q-250 0 -381 150l209 182q76 -100 187 -147h126q29 57 29 143q0 100 -63 150h-318l-41 36l82 545h578l-84 -248h-371l-31 -196l113 49h96z" />
    <glyph glyph-name="six.dnom" horiz-adv-x="946" 
d="M623 639q119 0 192.5 -68.5t73.5 -187.5q0 -111 -103 -236l-323 -176q-182 0 -277.5 91.5t-95.5 297.5q0 238 82 523l324 176q246 0 376 -150l-210 -182q-76 100 -187 147h-125q-16 -113 -18 -348l182 113h109zM606 156q27 61 27 147q0 102 -62 152h-198
q-29 -61 -29 -146q0 -104 64 -153h198z" />
    <glyph glyph-name="seven.dnom" horiz-adv-x="727" 
d="M96 1030h641v-6l-438 -1024l-164 -10l336 792h-461z" />
    <glyph glyph-name="eight.dnom" horiz-adv-x="960" 
d="M455 -29q-170 0 -272.5 61.5t-102.5 178.5t86 219l92 39q-164 59 -164 205q0 90 96 213l314 172q172 0 267 -59.5t95 -170.5q0 -117 -80 -213l-77 -32q170 -57 170 -213q0 -102 -101 -224zM406 618h178q27 53 26 127q0 84 -57 127h-178q-25 -45 -25 -124q1 -85 56 -130z
M397 156h199q29 53 29 137q0 90 -64 139h-199q-27 -74 -26 -135q0 -92 61 -141z" />
    <glyph glyph-name="nine.dnom" horiz-adv-x="948" 
d="M483 1059q182 0 277.5 -91t95.5 -298q0 -238 -82 -523l-323 -176q-246 0 -377 150l211 182q76 -100 186 -147h125q16 113 18 348l-182 -113h-108q-119 0 -193 68.5t-74 187.5q0 111 103 236zM573 575q29 61 29 146q0 104 -63 153h-199q-27 -61 -27 -147q0 -102 62 -152
h198z" />
    <glyph glyph-name="zero.numr" horiz-adv-x="1095" 
d="M590 436q-238 0 -379 141.5t-141 380.5q0 203 100 385l336 181q240 0 381 -141.5t141 -381.5q0 -199 -100 -385zM582 621h159q31 182 31 245q0 340 -254 471h-164q-31 -186 -30 -243q0 -344 258 -473z" />
    <glyph glyph-name="one.numr" horiz-adv-x="600" 
d="M86 1495l363 29v-1059l-246 -10v858l-185 -19z" />
    <glyph glyph-name="two.numr" horiz-adv-x="827" 
d="M348 713h412l-84 -248h-678v6q311 381 389 498.5t78 201.5q0 59 -42 95.5t-110 36.5q-61 0 -109 -16.5t-130 -65.5l-41 63l248 240h98q86 0 158.5 -24.5t128 -89t55.5 -161.5q0 -106 -77 -217.5t-296 -318.5z" />
    <glyph glyph-name="three.numr" horiz-adv-x="878" 
d="M580 1085q109 -8 172 -67.5t63 -157.5q0 -121 -100 -248l-324 -176q-250 0 -381 150l209 182q74 -98 187 -147h126q29 57 29 143q0 88 -63 139h-297l63 184h217q12 47 12.5 98.5t-36.5 84.5t-103 33q-88 0 -252 -82l-41 63l248 240h125q143 0 228.5 -59.5t85.5 -182.5
q0 -47 -33 -125z" />
    <glyph glyph-name="four.numr" horiz-adv-x="931" 
d="M909 877l-63 -187h-117v-225l-246 -10v235h-440l-43 86l483 719l246 29v-647h180zM252 877h231v356z" />
    <glyph glyph-name="five.numr" horiz-adv-x="882" 
d="M522 1100q141 0 217 -60.5t76 -167.5q0 -59 -28.5 -132.5t-71.5 -127.5l-324 -176q-250 0 -381 150l209 182q76 -100 187 -147h126q29 57 29 143q0 100 -63 149h-318l-41 37l82 545h578l-84 -248h-371l-31 -196l113 49h96z" />
    <glyph glyph-name="six.numr" horiz-adv-x="946" 
d="M623 1104q119 0 192.5 -68.5t73.5 -187.5q0 -111 -103 -236l-323 -176q-182 0 -277.5 91t-95.5 298q0 238 82 523l324 176q246 0 376 -150l-210 -182q-76 100 -187 147h-125q-16 -113 -18 -348l182 113h109zM606 621q27 61 27 147q0 102 -62 152h-198q-29 -61 -29 -146
q0 -104 64 -153h198z" />
    <glyph glyph-name="seven.numr" horiz-adv-x="727" 
d="M96 1495h641v-6l-438 -1024l-164 -10l336 792h-461z" />
    <glyph glyph-name="eight.numr" horiz-adv-x="960" 
d="M455 436q-170 0 -272.5 61.5t-102.5 178.5t86 219l92 39q-164 59 -164 205q0 90 96 213l314 172q172 0 267 -59.5t95 -170.5q0 -119 -80 -213l-77 -32q170 -57 170 -213q0 -102 -101 -224zM406 1083h178q27 53 26 127q0 84 -57 127h-178q-25 -47 -25 -125q1 -84 56 -129z
M397 621h199q29 53 29 137q0 90 -64 139h-199q-27 -74 -26 -135q0 -92 61 -141z" />
    <glyph glyph-name="nine.numr" horiz-adv-x="948" 
d="M483 1524q182 0 277.5 -91.5t95.5 -297.5q0 -238 -82 -523l-323 -176q-246 0 -377 150l211 182q76 -100 186 -147h125q16 113 18 348l-182 -113h-108q-119 0 -193 68.5t-74 187.5q0 111 103 236zM573 1040q29 61 29 146q0 104 -63 153h-199q-27 -61 -27 -147
q0 -102 62 -152h198z" />
    <glyph glyph-name="zero.superior" horiz-adv-x="1095" 
d="M590 702q-238 0 -379 141.5t-141 381.5q0 203 100 385l336 180q240 0 381 -141.5t141 -380.5q0 -199 -100 -385zM582 887h159q31 182 31 246q0 340 -254 471h-164q-31 -186 -30 -244q0 -344 258 -473z" />
    <glyph glyph-name="glyph478" horiz-adv-x="600" 
d="M86 1761l363 29v-1059l-246 -10v858l-185 -18z" />
    <glyph glyph-name="glyph479" horiz-adv-x="827" 
d="M348 979h412l-84 -248h-678v6q311 381 389 499t78 202q0 59 -42 95t-110 36q-61 0 -109 -16.5t-130 -65.5l-41 63l248 240h98q86 0 158.5 -24.5t128 -89t55.5 -160.5q0 -106 -77 -218t-296 -319z" />
    <glyph glyph-name="glyph480" horiz-adv-x="878" 
d="M580 1352q109 -8 172 -67.5t63 -158.5q0 -121 -100 -247l-324 -177q-250 0 -381 150l209 182q74 -98 187 -147h126q29 57 29 143q0 88 -63 139h-297l63 185h217q12 47 12.5 98t-36.5 84t-103 33q-88 0 -252 -82l-41 63l248 240h125q143 0 228.5 -59.5t85.5 -182.5
q0 -47 -33 -125z" />
    <glyph glyph-name="four.superior" horiz-adv-x="931" 
d="M909 1143l-63 -187h-117v-225l-246 -10v235h-440l-43 86l483 719l246 29v-647h180zM252 1143h231v356z" />
    <glyph glyph-name="five.superior" horiz-adv-x="882" 
d="M522 1366q141 0 217 -60.5t76 -166.5q0 -59 -28.5 -133t-71.5 -127l-324 -177q-250 0 -381 150l209 182q76 -100 187 -147h126q29 57 29 143q0 100 -63 150h-318l-41 37l82 544h578l-84 -248h-371l-31 -196l113 49h96z" />
    <glyph glyph-name="six.superior" horiz-adv-x="946" 
d="M623 1370q119 0 192.5 -68.5t73.5 -187.5q0 -111 -103 -235l-323 -177q-182 0 -277.5 91.5t-95.5 298.5q0 238 82 522l324 176q246 0 376 -150l-210 -182q-76 100 -187 148h-125q-16 -113 -18 -349l182 113h109zM606 887q27 61 27 147q0 102 -62 152h-198
q-29 -61 -29 -146q0 -104 64 -153h198z" />
    <glyph glyph-name="seven.superior" horiz-adv-x="727" 
d="M96 1761h641v-6l-438 -1024l-164 -10l336 792h-461z" />
    <glyph glyph-name="eight.superior" horiz-adv-x="960" 
d="M455 702q-170 0 -272.5 61.5t-102.5 178.5t86 219l92 39q-164 59 -164 205q0 90 96 213l314 172q172 0 267 -59.5t95 -169.5q0 -119 -80 -213l-77 -33q170 -57 170 -213q0 -102 -101 -223zM406 1350h178q27 53 26 127q0 84 -57 127h-178q-25 -47 -25 -125q1 -84 56 -129z
M397 887h199q29 53 29 137q0 90 -64 139h-199q-27 -74 -26 -135q0 -92 61 -141z" />
    <glyph glyph-name="nine.superior" horiz-adv-x="948" 
d="M483 1790q182 0 277.5 -91t95.5 -298q0 -238 -82 -522l-323 -177q-246 0 -377 150l211 182q76 -100 186 -147h125q16 113 18 348l-182 -113h-108q-119 0 -193 69t-74 187q0 111 103 236zM573 1307q29 61 29 145q0 104 -63 154h-199q-27 -61 -27 -148q0 -102 62 -151h198z
" />
    <glyph glyph-name="uni0336.aalt" 
d="M-219 506h-961l64 192h960z" />
    </font>
</defs>
</svg>
