<svg xmlns="http://www.w3.org/2000/svg" xmlns:xlink="http://www.w3.org/1999/xlink" width="78px" height="50px" viewBox="0 0 78 50" version="1.1">
    <!-- Generator: Sketch 63.1 (92452) - https://sketch.com -->
    <title>Menu_Revised (1)</title>
    <desc>Created with Sketch.</desc>
    <g id="Design" stroke="none" stroke-width="1" fill="none" fill-rule="evenodd">
        <g id="Instructions" transform="translate(-817.000000, -3885.000000)" stroke="#FFFFFF" stroke-width="1.0291">
            <g id="Menu_Revised-(1)" transform="translate(818.000000, 3886.000000)">
                <path d="M52.2,25.7 C53.1,25.7 53.8,25 53.8,24.1 C53.8,23.2 53.1,22.5 52.2,22.5 L24,22.5 C23.1,22.5 22.4,23.2 22.4,24.1 C22.4,25 23.1,25.7 24,25.7 L52.2,25.7 Z" id="Path"/>
                <path d="M52.2,28.9 C54.8,28.9 57,26.8 57,24.1 C57,21.4 54.9,19.3 52.2,19.3 L24,19.3 C21.4,19.3 19.2,21.4 19.2,24.1 C19.2,26.8 21.3,28.9 24,28.9 L52.2,28.9 Z" id="Path"/>
                <path d="M52.2,32 C56.6,32 60.2,28.4 60.2,24 C60.2,19.6 56.6,16 52.2,16 L24,16 C19.6,16 16,19.6 16,24 C16,28.4 19.6,32 24,32 L52.2,32 Z" id="Path"/>
                <path d="M52.2,35.2 C58.4,35.2 63.4,30.2 63.4,24 C63.4,17.8 58.4,12.8 52.2,12.8 L24,12.8 C17.8,12.8 12.8,17.8 12.8,24 C12.8,30.2 17.8,35.2 24,35.2 L52.2,35.2 Z" id="Path"/>
                <path d="M52.2,38.4 C60.1,38.4 66.6,32 66.6,24 C66.6,16 60.2,9.6 52.2,9.6 L24,9.6 C16.1,9.6 9.6,16 9.6,24 C9.6,32 16.1,38.4 24,38.4 L52.2,38.4 Z" id="Path"/>
                <path d="M52.2,41.6 C61.9,41.6 69.7,33.7 69.7,24.1 C69.7,14.5 61.9,6.5 52.2,6.5 L24,6.5 C14.3,6.5 6.5,14.4 6.5,24 C6.5,33.6 14.3,41.6 24,41.6 L52.2,41.6 Z" id="Path"/>
                <path d="M52.2,44.8 C63.6,44.8 72.9,35.5 72.9,24.1 C72.9,12.7 63.6,3.3 52.2,3.3 L24,3.3 C12.6,3.3 3.3,12.6 3.3,24 C3.3,35.4 12.6,44.8 24,44.8 L52.2,44.8 Z" id="Path"/>
                <path d="M52.2,48 C65.4,48 76.1,37.3 76.1,24.1 C76.1,10.9 65.4,0.2 52.2,0.2 L24,0.2 C10.8,0.2 0.1,10.9 0.1,24.1 C0.1,37.3 10.8,48 24,48 L52.2,48 Z" id="Path"/>
            </g>
        </g>
    </g>
</svg>