<svg width="292" height="166" viewBox="0 0 292 166" fill="none" xmlns="http://www.w3.org/2000/svg">
<path d="M213.86 83.08C213.85 79.62 211.04 76.82 207.58 76.83H81.88C78.43 76.97 75.75 79.8801 75.88 83.3201C76.01 86.5801 78.62 89.1801 81.88 89.3201H207.58C211.04 89.3301 213.85 86.54 213.86 83.08V83.08ZM207.58 64.3201H81.88C71.52 64.5601 63.32 73.15 63.56 83.51C63.79 93.53 71.86 101.6 81.88 101.83H207.58C217.94 102.07 226.53 93.87 226.77 83.51C227.01 73.15 218.81 64.5601 208.45 64.3201C208.16 64.3201 207.87 64.3201 207.58 64.3201V64.3201ZM207.58 51.8201H81.88C64.62 52.1301 50.88 66.3701 51.18 83.6301C51.48 100.46 65.05 114.02 81.88 114.33H207.58C224.84 114.64 239.09 100.9 239.39 83.6301C239.69 66.3601 225.96 52.1201 208.69 51.8201C208.32 51.8201 207.94 51.8201 207.57 51.8201H207.58ZM207.58 39.31H81.88C57.71 39.68 38.41 59.5701 38.78 83.7401C39.14 107.4 58.23 126.49 81.88 126.84H207.59C231.76 127.21 251.65 107.91 252.02 83.7401C252.39 59.5701 233.09 39.68 208.92 39.31C208.48 39.31 208.04 39.31 207.6 39.31H207.59H207.58ZM207.58 26.81H81.88C50.81 27.22 25.95 52.75 26.37 83.83C26.78 114.32 51.39 138.94 81.88 139.34H207.59C238.66 139.75 264.19 114.9 264.61 83.83C265.02 52.76 240.17 27.23 209.1 26.81C208.6 26.81 208.1 26.81 207.6 26.81H207.59H207.58ZM207.58 14.3H81.88C43.9 13.84 12.74 44.2601 12.29 82.2401C11.83 120.22 42.25 151.38 80.23 151.83C80.78 151.83 81.34 151.83 81.89 151.83H207.6C245.58 151.83 276.37 121.05 276.38 83.0701C276.38 45.0901 245.6 14.3 207.62 14.29H207.59L207.58 14.3ZM207.58 1.81004H81.88C36.99 2.29004 1.01003 39.08 1.51003 83.97C2.00003 128.15 37.7 163.85 81.88 164.34H207.59C252.48 164.84 289.27 128.85 289.77 83.97C290.27 39.09 254.28 2.29004 209.4 1.79004C208.8 1.79004 208.2 1.79004 207.6 1.79004H207.59L207.58 1.81004Z" stroke="#393737" stroke-opacity="0.55" stroke-width="3" stroke-miterlimit="10"/>
</svg>
