<svg width="166" height="370" viewBox="0 0 166 370" fill="none" xmlns="http://www.w3.org/2000/svg">
<path d="M82.82 292.04C86.28 292.04 89.08 289.23 89.07 285.77V82.77C89.07 79.32 86.27 76.52 82.82 76.52C79.37 76.52 76.57 79.32 76.57 82.77V285.77C76.57 289.23 79.36 292.03 82.82 292.04V292.04ZM101.57 285.77V82.77C101.57 72.41 93.18 64.02 82.82 64.02C72.46 64.02 64.07 72.41 64.07 82.77V285.77C64.07 296.13 72.46 304.52 82.82 304.52C93.18 304.52 101.57 296.13 101.57 285.77V285.77ZM114.08 285.77V82.77C114.07 65.51 100.07 51.52 82.7999 51.53C65.5499 51.54 51.57 65.52 51.56 82.77V285.77C51.55 303.03 65.5399 317.04 82.7999 317.05C100.06 317.06 114.07 303.07 114.08 285.81V285.77V285.77ZM126.58 285.77V82.77C126.59 58.6 107.01 39 82.84 38.99C58.67 38.98 39.07 58.56 39.06 82.73V285.77C39.05 309.94 58.6299 329.54 82.7999 329.55C106.97 329.56 126.57 309.98 126.58 285.81V285.77V285.77ZM139.09 285.77V82.77C139.5 51.7 114.65 26.17 83.5799 25.75C52.5099 25.34 26.98 50.19 26.56 81.26C26.56 81.76 26.56 82.26 26.56 82.76V285.76C26.56 316.84 51.7499 342.03 82.8299 342.03C113.91 342.03 139.1 316.84 139.1 285.76H139.09V285.77ZM151.59 285.77V82.77C151.59 44.79 120.8 14 82.82 14C44.84 14 14.0499 44.79 14.0499 82.77V285.77C14.0699 323.75 44.87 354.53 82.85 354.51C120.8 354.49 151.57 323.73 151.59 285.77V285.77ZM164.1 285.77V82.77C164.1 37.89 127.71 1.5 82.8299 1.5C37.9499 1.5 1.55996 37.89 1.55996 82.77V285.77C1.05996 330.66 37.05 367.45 81.93 367.95C126.82 368.45 163.61 332.46 164.11 287.58C164.11 286.98 164.11 286.38 164.11 285.78L164.1 285.77Z" stroke="#393737" stroke-opacity="0.55" stroke-width="3" stroke-miterlimit="10"/>
</svg>
