<svg width="166" height="167" viewBox="0 0 166 167" fill="none" xmlns="http://www.w3.org/2000/svg">
<path d="M82.91 77.18C86.36 77.18 89.16 79.98 89.16 83.43C89.16 86.88 86.36 89.68 82.91 89.68C79.46 89.68 76.66 86.88 76.66 83.43C76.66 79.98 79.46 77.18 82.91 77.18ZM82.91 64.67C93.27 64.67 101.67 73.06 101.68 83.42C101.69 93.78 93.29 102.18 82.93 102.19C72.57 102.19 64.17 93.8 64.16 83.44C64.16 73.07 72.55 64.68 82.91 64.67ZM82.91 52.17C100.17 52.17 114.17 66.17 114.17 83.43C114.17 100.69 100.17 114.69 82.91 114.69C65.65 114.69 51.65 100.69 51.65 83.43C51.65 66.17 65.65 52.17 82.91 52.17V52.17ZM82.91 39.66C107.08 39.66 126.68 59.25 126.69 83.42C126.69 107.59 107.1 127.19 82.93 127.2C58.76 127.21 39.16 107.61 39.15 83.44C39.15 59.26 58.74 39.67 82.91 39.66V39.66ZM82.91 27.16C113.99 27.16 139.18 52.35 139.18 83.43C139.18 114.51 113.99 139.7 82.91 139.7C51.83 139.7 26.64 114.51 26.64 83.43C26.64 52.35 51.83 27.16 82.91 27.16ZM82.91 14.66C120.89 14.66 151.68 45.45 151.68 83.43C151.68 121.41 120.89 152.2 82.91 152.2C44.93 152.2 14.14 121.41 14.14 83.43C14.14 45.45 44.91 14.67 82.89 14.66H82.91V14.66ZM82.91 2.15002C127.8 2.15002 164.19 38.53 164.2 83.42C164.2 128.31 127.82 164.7 82.93 164.71C38.04 164.71 1.65001 128.33 1.64001 83.44C1.64001 38.54 38.02 2.16002 82.91 2.15002V2.15002Z" stroke="#393737" stroke-opacity="0.55" stroke-width="3" stroke-miterlimit="10"/>
</svg>
